<svg width="37" height="35" viewBox="0 0 37 35" fill="none" xmlns="http://www.w3.org/2000/svg">
<path d="M28.6303 26.7642C27.3861 25.4859 23.8497 23.0914 21.5318 23.0914C20.9949 23.0914 20.5262 23.2107 20.1428 23.4578C19.0094 24.1821 18.1061 24.7446 17.6715 24.7446C17.4329 24.7446 17.1772 24.5315 16.6148 24.0458L16.5211 23.9606C14.9616 22.6056 14.6293 22.2563 14.0242 21.6257L13.8709 21.4637C13.7601 21.353 13.6663 21.2507 13.5726 21.157C13.0443 20.6116 12.6608 20.2196 11.3058 18.6857L11.2462 18.6175C10.5986 17.8847 10.1725 17.4075 10.1469 17.0581C10.1213 16.7172 10.4196 16.1633 11.178 15.1322C12.0984 13.888 12.1324 12.3541 11.2888 10.5731C10.6156 9.16707 9.51631 7.82065 8.54485 6.63615L8.45963 6.53389C7.62451 5.5113 6.65305 5 5.57081 5C4.36926 5 3.37223 5.64764 2.84389 5.98851C2.80129 6.01407 2.75868 6.04816 2.71607 6.07372C1.53157 6.82362 0.670884 7.85474 0.347063 8.9029C-0.138668 10.4794 -0.462489 12.5246 1.86391 16.7769C3.87501 20.4582 5.69863 22.9295 8.59598 25.9035C11.3229 28.6986 12.533 29.6019 15.2428 31.5618C18.2595 33.7434 21.1568 34.996 23.185 34.996C25.0682 34.996 26.551 34.9961 28.6644 32.4481C30.88 29.7723 29.9596 28.1362 28.6303 26.7642Z" fill="white"/>
<path d="M16.666 1C22.6658 1 34.7988 4.73322 35.3321 19.6661" stroke="white" stroke-width="2" stroke-linecap="round"/>
<path d="M16 7.6665C19.7777 7.6665 27.533 10.0664 28.3329 19.6661" stroke="white" stroke-width="2" stroke-linecap="round"/>
<path d="M16.666 14.3329C18.2215 14.444 21.5325 15.6662 22.3325 19.6661" stroke="white" stroke-width="2" stroke-linecap="round"/>
</svg>
