<svg width="32" height="18" viewBox="0 0 32 18" fill="none" xmlns="http://www.w3.org/2000/svg">
<path d="M20 5.5C18.5175 5.74708 16.5772 5.62533 14.9568 5.41757C13.6877 5.25485 12.5 6.21374 12.5 7.49323V11.6875V13C12.5 12.6894 13.3038 11.9569 13.9752 11.4108C14.3109 11.1378 14.7338 11 15.1666 11H18.5C19.1414 11 20.2542 11.2143 21.0138 11.3851C21.334 11.4572 21.6666 11.4584 21.9851 11.3787L23.5 11C24.8333 10.8333 27.6 10.4 28 10C28.5 9.5 29.5 9.5 30.5 8.5C31.2346 7.76542 30.9012 6.41253 30.5837 5.68005C30.5312 5.55909 30.4525 5.45247 30.3593 5.35925C30.1292 5.12923 29.8176 5 29.4923 5H25.5C23 5 23 5 20 5.5Z" fill="#4B93FF"/>
<path fill-rule="evenodd" clip-rule="evenodd" d="M16.7285 0C16.1762 0 15.7285 0.447714 15.7285 0.999999V1.08475H14.8475C13.5964 1.08475 12.4794 1.65912 11.7459 2.55857C11.7051 2.60867 11.6654 2.65979 11.627 2.71186C11.137 3.37569 10.8475 4.1964 10.8475 5.08475V5.25389V7.25389H9.74594V5.25389V5.08475V4.71186V2.71186H9.33494H7.74594H4.30823L0.835925 8.08553L0.947332 10.8195L0.995762 12.0079L1.02883 12.8195H0.581254H0.514416C0.474444 12.8195 0.436025 12.8287 0.399401 12.8451C0.200356 12.9341 0.054309 13.2331 0 13.3952V14.4827C0 14.6726 0.0737597 14.824 0.169968 14.9381C0.281211 15.07 0.422466 15.1521 0.514416 15.1864H2.18019C2.17339 15.0969 2.16992 15.0065 2.16992 14.9153C2.16992 14.8832 2.17035 14.8513 2.1712 14.8195C2.17277 14.7607 2.17578 14.7022 2.18019 14.6441C2.23455 13.9296 2.50191 13.2746 2.91893 12.7424C2.95241 12.6997 2.98685 12.6578 3.02223 12.6167C3.66875 11.8655 4.6265 11.3899 5.69535 11.3899C7.55115 11.3899 9.07204 12.8238 9.2105 14.6441C9.2173 14.7336 9.22077 14.824 9.22077 14.9153C9.22077 15.0065 9.2173 15.0969 9.2105 15.1864H10.8484L10.8484 15.1865H11.2142H11.5652H13.5689C13.5621 15.097 13.5586 15.0065 13.5586 14.9153C13.5586 14.824 13.5621 14.7336 13.5689 14.6441C13.7073 12.8238 15.2282 11.3899 17.084 11.3899C18.1155 11.3899 19.0435 11.8329 19.6882 12.539C20.2034 13.1032 20.5377 13.8356 20.5992 14.6441C20.606 14.7336 20.6094 14.824 20.6094 14.9153C20.6094 15.0065 20.606 15.097 20.5992 15.1865H21.1628C21.156 15.097 21.1525 15.0065 21.1525 14.9153C21.1525 14.824 21.156 14.7336 21.1628 14.6441C21.2243 13.8356 21.5586 13.1032 22.0738 12.539C22.7185 11.8329 23.6465 11.3899 24.678 11.3899C25.2248 11.3899 25.7425 11.5143 26.2043 11.7365C26.696 11.973 27.1243 12.3202 27.457 12.7458C27.5892 12.9149 27.7063 13.0964 27.8063 13.2882C27.8387 13.3505 27.8694 13.4138 27.8982 13.4782C27.9102 13.5051 27.9219 13.5322 27.9332 13.5594C28.0742 13.8975 28.1641 14.2623 28.1931 14.6441C28.1954 14.6739 28.1973 14.7038 28.1988 14.7338L28.1994 14.7458C28.202 14.802 28.2034 14.8585 28.2034 14.9153C28.2034 15.0065 28.1999 15.097 28.1931 15.1865H28.4755C28.9094 15.1865 29.1987 15.0057 29.2891 14.9153V13.2882C29.2891 13.2756 29.2885 13.2632 29.2873 13.2512C29.2498 12.8729 28.6382 12.7595 28.2729 12.747C28.2489 12.7462 28.226 12.7458 28.2043 12.7458V11.3847C28.4265 11.3735 28.6439 11.3442 28.8551 11.2982C29.1436 11.2354 29.4204 11.1415 29.682 11.0201C31.0508 10.3848 32 8.99817 32 7.38983V5.08475C32 2.87561 30.2091 1.08475 28 1.08475H27.1186V1C27.1186 0.447715 26.6709 0 26.1186 0H24.322C23.7698 0 23.322 0.447714 23.322 0.999999V1.08475H19.5251V1C19.5251 0.447715 19.0774 0 18.5251 0H16.7285ZM10.8475 9.25389H12.8475V7.25389V5.08475C12.8475 3.98018 13.7429 3.08475 14.8475 3.08475H28C29.1046 3.08475 30 3.98018 30 5.08475V7.38983C30 8.45954 29.1593 9.33412 28.1038 9.38723L26.2043 9.48281V9.60339C25.7196 9.46434 25.2075 9.38986 24.678 9.38986C23.2074 9.38986 21.871 9.96434 20.881 10.9011C19.891 9.96434 18.5546 9.38986 17.084 9.38986C14.6362 9.38986 12.5602 10.9816 11.8345 13.1864H10.9449C10.2192 10.9816 8.14316 9.38986 5.69535 9.38986C4.68417 9.38986 3.73644 9.66148 2.92113 10.1357L2.8601 8.63806L5.3971 4.71186H7.74594V7.25389V9.25389H9.74594H10.8475ZM8.67704 14.9152C8.67704 16.5627 7.34148 17.8983 5.69399 17.8983C4.04649 17.8983 2.71094 16.5627 2.71094 14.9152C2.71094 13.2677 4.04649 11.9322 5.69399 11.9322C7.34148 11.9322 8.67704 13.2677 8.67704 14.9152ZM7.04987 14.9153C7.04987 15.6641 6.4428 16.2712 5.69394 16.2712C4.94508 16.2712 4.33801 15.6641 4.33801 14.9153C4.33801 14.1664 4.94508 13.5593 5.69394 13.5593C6.4428 13.5593 7.04987 14.1664 7.04987 14.9153ZM20.0678 14.9153C20.0678 16.5627 18.7322 17.8983 17.0847 17.8983C15.4373 17.8983 14.1017 16.5627 14.1017 14.9153C14.1017 13.2678 15.4373 11.9322 17.0847 11.9322C18.7322 11.9322 20.0678 13.2678 20.0678 14.9153ZM18.4405 14.9153C18.4405 15.6641 17.8334 16.2712 17.0846 16.2712C16.3357 16.2712 15.7286 15.6641 15.7286 14.9153C15.7286 14.1664 16.3357 13.5593 17.0846 13.5593C17.8334 13.5593 18.4405 14.1664 18.4405 14.9153ZM24.6784 17.8983C26.3259 17.8983 27.6614 16.5627 27.6614 14.9152C27.6614 13.2677 26.3259 11.9322 24.6784 11.9322C23.0309 11.9322 21.6953 13.2677 21.6953 14.9152C21.6953 16.5627 23.0309 17.8983 24.6784 17.8983ZM24.6782 16.2712C25.4271 16.2712 26.0341 15.6641 26.0341 14.9153C26.0341 14.1664 25.4271 13.5593 24.6782 13.5593C23.9293 13.5593 23.3223 14.1664 23.3223 14.9153C23.3223 15.6641 23.9293 16.2712 24.6782 16.2712Z" fill="#070707"/>
</svg>
