<svg width="24" height="24" viewBox="0 0 24 24" fill="none" xmlns="http://www.w3.org/2000/svg">
<path d="M22.6688 7.91655C21.5906 4.43842 18.8063 1.66811 15.3281 0.575925C7.35469 -1.91314 0 4.01655 0 11.6197H4.49063C4.49063 6.8478 9.225 3.15874 14.2453 4.97749C16.1063 5.6478 17.5969 7.13842 18.2672 8.99467C20.1 14.0103 16.4062 18.7353 11.6391 18.7447V18.7587H11.625V23.2494C19.2469 23.2494 25.1625 15.8994 22.6688 7.91655Z" fill="black"/>
<path d="M3.8875 22.9312H7.34219V19.4812H3.8875V22.9312ZM1 16.5938V19.4812H3.8875V16.5938H1ZM11.8234 19.4672V15H7.34219V19.4812H11.8094V19.4672H11.8234Z" fill="#FF3A3A"/>
</svg>
