<svg width="24" height="26" viewBox="0 0 24 26" fill="none" xmlns="http://www.w3.org/2000/svg">
<path d="M4.5567 8.20615L2.03851 11.007C1.7084 11.3742 1.52577 11.8504 1.52577 12.3442V23C1.52577 24.1045 2.4212 25 3.52577 25H20.6495C21.7541 25 22.6495 24.1045 22.6495 23V8.16491C22.6495 7.06034 21.7541 6.16492 20.6495 6.16492H8.94183C8.4114 6.16492 7.90269 5.9542 7.52762 5.57913L5.97091 4.02243C5.18987 3.24138 3.92354 3.24138 3.14249 4.02243L2.40587 4.75905C1.62809 5.53683 1.62436 6.79671 2.39753 7.57908L3.59794 8.79378" stroke="black" stroke-width="2"/>
<path d="M10.4629 3.07216L11.6268 1.70404C12.0068 1.25738 12.5637 1 13.1501 1H20.6175C21.7221 1 22.6175 1.89543 22.6175 3V7.49485" stroke="black" stroke-width="2"/>
<path d="M15.1657 12.4124L8.76367 18.7216" stroke="#48D3FF" stroke-width="2"/>
<path d="M8.76395 12.4124L15.166 18.7216" stroke="#48D3FF" stroke-width="2"/>
</svg>
