<svg width="33" height="19" viewBox="0 0 33 19" fill="none" xmlns="http://www.w3.org/2000/svg">
<path d="M7.05623 4.35845H5.56546C4.98162 4.35845 4.42692 4.61357 4.04696 5.05686L2.03032 7.40956C1.71962 7.77205 1.54883 8.23373 1.54883 8.71115V8.87943C1.54883 10.4768 3.47529 11.6665 5.03032 11.3011C5.39453 11.2155 5.78289 11.1366 6.19399 11.0681C8.31567 10.7145 9.83168 12.8593 10.5475 14.4551C10.7426 14.8901 11.1608 15.1971 11.6376 15.1971C12.0905 15.1971 12.4975 14.9212 12.669 14.502C13.0598 13.5464 13.6134 12.2293 13.9359 11.5842C14.31 10.836 17.8194 11.7261 20.0112 12.4118C20.4242 12.541 20.8675 12.5425 21.2781 12.4056L25.2908 11.0681L27.02 10.4917C27.8367 10.2194 28.3875 9.45533 28.3875 8.59447V5.90678C28.3875 4.87452 27.3553 3.32619 26.8391 3.32619H22.194C19.6133 3.32619 14.9682 2.81006 14.4521 3.32619C14.2654 3.51285 13.9311 3.70653 13.5731 3.87864C12.87 4.21664 12.3324 4.85496 12.2462 5.63029L12.0235 7.63464C11.9369 8.414 11.2782 9.00361 10.494 9.00361C9.5768 9.00361 8.86322 8.20635 8.96451 7.29475L9.044 6.57931C9.17564 5.39458 8.24826 4.35845 7.05623 4.35845Z" fill="#EDC012"/>
<path fill-rule="evenodd" clip-rule="evenodd" d="M17.2364 0C16.6841 0 16.2364 0.447714 16.2364 0.999999V1.11971H15.1973C13.9259 1.11971 12.793 1.71289 12.0603 2.6376C12.0185 2.69044 11.9779 2.74436 11.9387 2.79932C11.4719 3.4537 11.1973 4.25463 11.1973 5.11971V5.48786V7.48786H10.0603V5.48786V5.11971V4.79932V2.79932H9.66242H8.06032H4.4472L0.86289 8.34633L0.98052 11.233L1.03265 12.5121L1.06202 13.233H0.670139H0.53101C0.489749 13.233 0.450091 13.2425 0.412285 13.2595C0.206819 13.3513 0.0560609 13.66 0 13.8273V14.9499C0 15.1873 0.111704 15.3664 0.240992 15.4894C0.341862 15.5854 0.453435 15.6474 0.53101 15.6763H2.25084C2.24381 15.5839 2.24023 15.4906 2.24023 15.3964C2.24023 15.3416 2.24144 15.2872 2.24384 15.233C2.24556 15.194 2.2479 15.1552 2.25084 15.1165C2.30694 14.3789 2.58294 13.7027 3.01341 13.1535C3.02815 13.1347 3.04306 13.116 3.05816 13.0975C3.72548 12.2796 4.74143 11.7573 5.87938 11.7573C7.79505 11.7573 9.365 13.2374 9.50792 15.1165C9.51495 15.2089 9.51853 15.3022 9.51853 15.3964C9.51853 15.4906 9.51495 15.5839 9.50792 15.6763H11.1979L11.1979 15.6763H11.5117H12.003H14.0067C13.9997 15.5839 13.9961 15.4906 13.9961 15.3964C13.9961 15.3022 13.9997 15.2089 14.0067 15.1165C14.1496 13.2374 15.7196 11.7573 17.6352 11.7573C18.7248 11.7573 19.7025 12.2361 20.3695 12.9948C20.8751 13.57 21.2021 14.3062 21.2638 15.1165C21.2708 15.2089 21.2744 15.3022 21.2744 15.3964C21.2744 15.4906 21.2708 15.5839 21.2638 15.6763H21.8446C21.8376 15.5839 21.834 15.4906 21.834 15.3964C21.834 15.3022 21.8376 15.2089 21.8446 15.1165C21.9062 14.3062 22.2332 13.57 22.7389 12.9948C23.4058 12.2361 24.3836 11.7573 25.4731 11.7573C26.0633 11.7573 26.6207 11.8977 27.1137 12.1471C27.594 12.3901 28.0131 12.7365 28.3418 13.1569C28.4783 13.3315 28.5991 13.5188 28.7023 13.7168C28.7465 13.8015 28.7874 13.8881 28.8249 13.9765L28.8331 13.9961C28.9788 14.3453 29.0717 14.7221 29.1017 15.1165L29.1032 15.138L29.1045 15.1569C29.1097 15.2361 29.1123 15.3159 29.1123 15.3964C29.1123 15.4906 29.1087 15.5839 29.1017 15.6763H29.3936C29.8415 15.6763 30.1401 15.4897 30.2334 15.3964V13.7168C30.2334 13.2689 29.4869 13.1569 29.1137 13.1569V11.1569V11.0897V10.6603V10.6375L28.8888 10.4549C28.9939 10.3399 29.0923 10.2189 29.1834 10.0923C29.6566 9.43522 29.9354 8.62877 29.9354 7.75722V5.11971C29.9354 3.26549 28.6737 1.70594 26.962 1.25269V1C26.962 0.447715 26.5143 0 25.9621 0H24.043C23.4907 0 23.043 0.447714 23.043 0.999999V1.11971H20.1555V1C20.1555 0.447715 19.7078 0 19.1555 0H17.2364ZM11.1973 9.48786H13.1973V7.48786V5.11971C13.1973 4.01514 14.0927 3.11971 15.1973 3.11971H25.9354C27.0399 3.11971 27.9354 4.01514 27.9354 5.11971V7.75722C27.9354 8.27811 27.7389 8.7485 27.4125 9.10563L26.6956 9.89011C26.302 9.80312 25.8929 9.75725 25.4731 9.75725C23.9505 9.75725 22.5688 10.3607 21.5542 11.3415C20.5396 10.3607 19.1579 9.75725 17.6352 9.75725C15.1207 9.75725 12.9905 11.4031 12.2632 13.6763H11.2514C10.5241 11.4031 8.39395 9.75725 5.87938 9.75725C4.80882 9.75725 3.80793 10.0556 2.95531 10.5736L2.88707 8.89886L5.53607 4.79932H8.06032V7.48786V9.48786H10.0603H11.1973ZM20.715 15.3964C20.715 17.097 19.3364 18.4757 17.6357 18.4757C15.9351 18.4757 14.5565 17.097 14.5565 15.3964C14.5565 13.6957 15.9351 12.3171 17.6357 12.3171C19.3364 12.3171 20.715 13.6957 20.715 15.3964ZM19.0355 15.3964C19.0355 16.1694 18.4089 16.7961 17.6359 16.7961C16.8629 16.7961 16.2362 16.1694 16.2362 15.3964C16.2362 14.6234 16.8629 13.9967 17.6359 13.9967C18.4089 13.9967 19.0355 14.6234 19.0355 15.3964ZM8.95738 15.3964C8.95738 17.097 7.57874 18.4757 5.87811 18.4757C4.17747 18.4757 2.79883 17.097 2.79883 15.3964C2.79883 13.6957 4.17747 12.3171 5.87811 12.3171C7.57874 12.3171 8.95738 13.6957 8.95738 15.3964ZM7.27769 15.3964C7.27769 16.1694 6.65103 16.7961 5.87801 16.7961C5.105 16.7961 4.47834 16.1694 4.47834 15.3964C4.47834 14.6234 5.105 13.9968 5.87801 13.9968C6.65103 13.9968 7.27769 14.6234 7.27769 15.3964ZM25.4739 18.4757C27.1746 18.4757 28.5532 17.097 28.5532 15.3964C28.5532 13.6957 27.1746 12.3171 25.4739 12.3171C23.7733 12.3171 22.3947 13.6957 22.3947 15.3964C22.3947 17.097 23.7733 18.4757 25.4739 18.4757ZM25.474 16.7961C26.247 16.7961 26.8737 16.1694 26.8737 15.3964C26.8737 14.6234 26.247 13.9968 25.474 13.9968C24.701 13.9968 24.0743 14.6234 24.0743 15.3964C24.0743 16.1694 24.701 16.7961 25.474 16.7961Z" fill="#070707"/>
<path d="M29.9355 4.12903H32.0001" stroke="black" stroke-width="2" stroke-linecap="square"/>
<path d="M29.9355 8.25806H30.9678" stroke="black" stroke-width="2" stroke-linecap="square"/>
</svg>
