<svg width="26" height="26" viewBox="0 0 26 26" fill="none" xmlns="http://www.w3.org/2000/svg">
<path d="M6.45455 3.72729H3C1.89543 3.72729 1 4.62273 1 5.72729V23C1 24.1046 1.89543 25 3 25H23C24.1046 25 25 24.1046 25 23V6.27275C25 5.16818 24.1046 4.27275 23 4.27275H20.0909" stroke="black" stroke-width="2"/>
<path d="M18.2927 1H7.83202C6.56043 1 5.61169 2.17109 5.87556 3.41501L7.57253 11.415C7.76854 12.3391 8.58437 13 9.529 13H17.0199C18.0032 13 18.8406 12.2853 18.9951 11.3142L20.2678 3.31423C20.4611 2.0996 19.5226 1 18.2927 1Z" fill="#69C9FF" stroke="black" stroke-width="2"/>
<path d="M11.9082 12.4546L14.09 7.54547" stroke="black" stroke-width="2" stroke-linecap="round"/>
<path d="M10.7212 17.6703L16.0929 17.6023" stroke="#B3F744" stroke-width="2" stroke-linecap="round"/>
</svg>
