<svg width="44" height="44" viewBox="0 0 44 44" fill="none" xmlns="http://www.w3.org/2000/svg">
<rect width="44" height="44" rx="22" fill="#F8CB16"/>
<path d="M30.5709 26.2545C29.7886 25.4508 27.5649 23.9451 26.1074 23.9451C25.7698 23.9451 25.4751 24.0201 25.234 24.1755C24.5213 24.6309 23.9534 24.9846 23.6801 24.9846C23.53 24.9846 23.3693 24.8506 23.0156 24.5452L22.9567 24.4916C21.9761 23.6396 21.7672 23.42 21.3867 23.0234L21.2903 22.9216C21.2206 22.852 21.1617 22.7877 21.1027 22.7287C20.7705 22.3858 20.5294 22.1393 19.6774 21.1748L19.6399 21.1319C19.2327 20.6711 18.9647 20.3711 18.9487 20.1514C18.9326 19.937 19.1201 19.5888 19.597 18.9404C20.1757 18.1581 20.1972 17.1936 19.6667 16.0737C19.2434 15.1896 18.5522 14.3429 17.9413 13.5981L17.8877 13.5338C17.3626 12.8908 16.7518 12.5693 16.0712 12.5693C15.3157 12.5693 14.6888 12.9766 14.3566 13.1909C14.3298 13.207 14.303 13.2284 14.2762 13.2445C13.5314 13.716 12.9902 14.3644 12.7866 15.0235C12.4812 16.0147 12.2775 17.3007 13.7404 19.9746C15.0049 22.2894 16.1516 23.8433 17.9735 25.7133C19.6881 27.4709 20.449 28.0388 22.153 29.2713C24.0498 30.643 25.8716 31.4307 27.1469 31.4307C28.3311 31.4307 29.2635 31.4307 30.5923 29.8285C31.9855 28.146 31.4068 27.1172 30.5709 26.2545Z" fill="#1679BC"/>
</svg>
