<svg width="174" height="140" viewBox="0 0 174 140" fill="none" xmlns="http://www.w3.org/2000/svg">
<g clip-path="url(#clip0_1702_7332)">
<path d="M50.5343 68.0457C50.8088 68.5041 51.1804 68.8968 51.6231 69.196C52.0657 69.4952 52.5686 69.6938 53.0963 69.7777C53.624 69.8615 54.1637 69.8287 54.6773 69.6814C55.1909 69.5341 55.666 69.276 56.0691 68.9253L67.3357 75.3871L66.9158 68.6509L56.2812 63.5474C55.6471 62.9093 54.801 62.5259 53.9031 62.47C53.0053 62.4141 52.1181 62.6894 51.4097 63.2439C50.7013 63.7984 50.221 64.5935 50.0596 65.4785C49.8982 66.3635 50.0671 67.2769 50.5343 68.0457Z" fill="#FFB8B8"/>
<path d="M83.1524 93.9317C79.8103 98.6093 79.9299 106.435 80.8623 115H96.6636L97.3506 113.397L98.2666 115H113.152C113.152 115 112.007 93.2447 109.946 92.5577C107.885 91.8707 83.1524 93.9317 83.1524 93.9317Z" fill="#2F2E41"/>
<path d="M96.6616 45.0606C101.088 45.0606 104.677 41.4721 104.677 37.0454C104.677 32.6188 101.088 29.0303 96.6616 29.0303C92.235 29.0303 88.6465 32.6188 88.6465 37.0454C88.6465 41.4721 92.235 45.0606 96.6616 45.0606Z" fill="#FFB8B8"/>
<path d="M102.456 47.1401L104.023 50.1443L114.864 54.9772L112.015 82.5551L110.815 85.4109L111.463 87.8909L109.901 89.7212C111.469 91.1402 111.668 92.6257 110.815 94.1622L105.823 95.3058C105.823 95.3058 78.0639 97.7742 80.4033 93.4738C82.9594 88.775 83.6104 74.8981 77.9674 67.4826C73.1768 61.187 76.8548 53.0179 76.8548 53.0179L88.2184 49.6219L92.3982 47.1401L102.456 47.1401Z" fill="#3F3D56"/>
<path d="M100.22 25.3044C100.258 25.2247 100.319 25.158 100.394 25.1131C100.47 25.0681 100.558 25.0468 100.646 25.0519C96.9762 24.8324 93.1111 25.2601 90.0412 27.2822C89.2974 27.7721 88.5962 28.3565 87.7869 28.7118C87.7487 28.729 87.7156 28.7558 87.6908 28.7895C87.666 28.8232 87.6504 28.8628 87.6454 28.9044C87.6404 28.946 87.6462 28.9881 87.6623 29.0268C87.6785 29.0654 87.7043 29.0993 87.7373 29.125L87.8262 29.1947C87.8613 29.2222 87.8882 29.2588 87.9039 29.3005C87.9196 29.3422 87.9236 29.3874 87.9154 29.4312C87.9072 29.475 87.8872 29.5158 87.8575 29.549C87.8278 29.5822 87.7895 29.6066 87.7469 29.6196C87.7025 29.6332 87.6628 29.6591 87.6326 29.6945C87.6025 29.7298 87.583 29.773 87.5766 29.819C87.5701 29.865 87.577 29.9119 87.5963 29.9542C87.6156 29.9964 87.6466 30.0323 87.6857 30.0575L88.3669 30.4978C88.4012 30.5195 88.4295 30.5496 88.4491 30.5852C88.4688 30.6207 88.4792 30.6606 88.4795 30.7013C88.4797 30.7419 88.4697 30.782 88.4504 30.8177C88.4311 30.8535 88.4032 30.8839 88.3691 30.906C88.3114 30.9417 88.2508 30.9724 88.1879 30.9979C88.1488 31.0126 88.1142 31.0371 88.0873 31.0691C88.0604 31.101 88.0422 31.1394 88.0345 31.1805C88.0267 31.2215 88.0297 31.2639 88.0431 31.3034C88.0565 31.343 88.0798 31.3785 88.1109 31.4064C88.4059 31.669 88.6321 31.9998 88.77 32.3699C88.997 32.9603 89.0378 33.6032 89.0761 34.2346C89.3108 33.3236 90.305 32.7874 91.2441 32.7329C92.1832 32.6784 93.0991 32.9882 94.0131 33.211C96.0037 33.6947 98.0711 33.7743 100.093 33.4449C99.4064 34.8227 99.9856 36.4662 100.568 37.891L102.455 37.0825C105.046 35.6199 103.241 41.8066 102.272 42.6559C104.25 43.3415 109.427 35.7314 107.761 32.8447C106.895 31.3431 107.51 29.4063 105.807 27.9821C104.972 27.1035 103.306 27.494 102.455 26.7637C102.12 26.4763 102.63 25.7073 102.17 25.5397C102.017 25.4841 100.246 25.2483 100.22 25.3044Z" fill="#2F2E41"/>
<path d="M86.6452 50.3975C85.1744 56.927 81.4022 72.1726 77.5751 75.361C77.3324 75.5902 77.0414 75.762 76.7235 75.8638C63.2713 79.141 58.9609 70.7815 58.9609 70.7815C58.9609 70.7815 62.566 69.0247 62.6574 65.5908L69.9275 67.8466L76.2651 53.5845L77.1977 52.7146L77.2029 52.7094L86.6452 50.3975Z" fill="#3F3D56"/>
<path d="M115.328 110.695C115.713 110.324 116.013 109.874 116.205 109.375C116.397 108.877 116.478 108.342 116.442 107.809C116.405 107.276 116.252 106.758 115.993 106.29C115.735 105.823 115.377 105.418 114.944 105.103L118.716 92.6748L112.245 94.5944L109.656 106.102C109.176 106.864 108.992 107.774 109.139 108.662C109.286 109.549 109.753 110.352 110.452 110.918C111.152 111.484 112.034 111.774 112.933 111.733C113.831 111.692 114.684 111.322 115.328 110.695V110.695Z" fill="#FFB8B8"/>
<path d="M111.875 54.2817L114.864 54.977C114.864 54.977 127.218 79.0142 124.241 83.5943C121.264 88.1744 117.617 103.338 117.617 103.338C117.617 103.338 112.223 102.265 110.162 99.5174L113.936 81.5333L110.043 66.419L111.875 54.2817Z" fill="#3F3D56"/>
<path d="M55.1699 89.976L55.2773 51.2627C55.2803 50.4791 55.5941 49.7288 56.1497 49.1762C56.7052 48.6237 57.4573 48.3141 58.2409 48.3154L87.4781 48.3965C88.2616 48.3996 89.012 48.7133 89.5645 49.2689C90.117 49.8245 90.4266 50.5766 90.4253 51.3601L90.318 90.0735C90.3149 90.857 90.0012 91.6074 89.4456 92.1599C88.89 92.7124 88.1379 93.022 87.3543 93.0207L58.1172 92.9397C57.3336 92.9366 56.5833 92.6229 56.0307 92.0673C55.4782 91.5117 55.1686 90.7596 55.1699 89.976V89.976Z" fill="#E6E6E6"/>
<path d="M57.4453 78.2895L57.5143 53.401C57.5172 52.6672 57.811 51.9645 58.3313 51.447C58.8517 50.9296 59.556 50.6397 60.2899 50.6409L85.4167 50.7105C86.1506 50.7134 86.8533 51.0072 87.3708 51.5275C87.8883 52.0479 88.1783 52.7522 88.1771 53.4861L88.0816 87.9357C88.0787 88.6695 87.7848 89.3723 87.2645 89.8897C86.7441 90.4072 86.0397 90.6971 85.3059 90.6959L69.7403 90.6527C66.4716 90.64 63.3414 89.3312 61.0364 87.0134C58.7314 84.6957 57.44 81.5583 57.4453 78.2895V78.2895Z" fill="white"/>
<path d="M82.5376 61.573H62.9451C62.6333 61.573 62.3343 61.4492 62.1138 61.2287C61.8934 61.0083 61.7695 60.7093 61.7695 60.3975C61.7695 60.0857 61.8934 59.7867 62.1138 59.5662C62.3343 59.3458 62.6333 59.2219 62.9451 59.2219H82.5376C82.8494 59.2219 83.1484 59.3458 83.3689 59.5662C83.5893 59.7867 83.7132 60.0857 83.7132 60.3975C83.7132 60.7093 83.5893 61.0083 83.3689 61.2287C83.1484 61.4492 82.8494 61.573 82.5376 61.573V61.573Z" fill="#1679BC"/>
<path d="M67.2554 56.1524H62.9451C62.6333 56.1524 62.3343 56.0285 62.1138 55.8081C61.8934 55.5876 61.7695 55.2886 61.7695 54.9768C61.7695 54.665 61.8934 54.366 62.1138 54.1456C62.3343 53.9251 62.6333 53.8013 62.9451 53.8013H67.2554C67.5672 53.8013 67.8662 53.9251 68.0867 54.1456C68.3071 54.366 68.431 54.665 68.431 54.9768C68.431 55.2886 68.3071 55.5876 68.0867 55.8081C67.8662 56.0285 67.5672 56.1524 67.2554 56.1524Z" fill="#1679BC"/>
<path d="M82.5376 66.9937H62.9451C62.6333 66.9937 62.3343 66.8698 62.1138 66.6494C61.8934 66.4289 61.7695 66.1299 61.7695 65.8181C61.7695 65.5064 61.8934 65.2073 62.1138 64.9869C62.3343 64.7664 62.6333 64.6426 62.9451 64.6426H82.5376C82.8494 64.6426 83.1484 64.7664 83.3689 64.9869C83.5893 65.2073 83.7132 65.5064 83.7132 65.8181C83.7132 66.1299 83.5893 66.4289 83.3689 66.6494C83.1484 66.8698 82.8494 66.9937 82.5376 66.9937Z" fill="#1679BC"/>
<path d="M82.5376 72.4143H62.9451C62.6333 72.4143 62.3343 72.2905 62.1138 72.07C61.8934 71.8496 61.7695 71.5506 61.7695 71.2388C61.7695 70.927 61.8934 70.628 62.1138 70.4075C62.3343 70.1871 62.6333 70.0632 62.9451 70.0632H82.5376C82.8494 70.0632 83.1484 70.1871 83.3689 70.4075C83.5893 70.628 83.7132 70.927 83.7132 71.2388C83.7132 71.5506 83.5893 71.8496 83.3689 72.07C83.1484 72.2905 82.8494 72.4143 82.5376 72.4143V72.4143Z" fill="#1679BC"/>
<path d="M80.951 86.6973C83.5343 86.6973 85.6285 84.6031 85.6285 82.0198C85.6285 79.4365 83.5343 77.3423 80.951 77.3423C78.3676 77.3423 76.2734 79.4365 76.2734 82.0198C76.2734 84.6031 78.3676 86.6973 80.951 86.6973Z" fill="#1679BC"/>
<path d="M80.3143 84.4543C80.2335 84.4543 80.1539 84.4355 80.0816 84.3993C80.0094 84.3632 79.9466 84.3108 79.8981 84.2461L78.622 82.5446C78.5809 82.49 78.551 82.4278 78.534 82.3615C78.5169 82.2953 78.5131 82.2264 78.5228 82.1587C78.5324 82.091 78.5553 82.0258 78.5901 81.967C78.6249 81.9081 78.671 81.8567 78.7257 81.8157C78.7804 81.7747 78.8427 81.7448 78.9089 81.7279C78.9752 81.7109 79.0441 81.7072 79.1118 81.7169C79.1795 81.7266 79.2446 81.7496 79.3034 81.7845C79.3622 81.8194 79.4135 81.8655 79.4545 81.9203L80.2894 83.0334L82.4336 79.817C82.4714 79.7599 82.5201 79.7109 82.5769 79.6727C82.6337 79.6344 82.6975 79.6078 82.7646 79.5943C82.8317 79.5807 82.9009 79.5806 82.968 79.5938C83.0352 79.607 83.0991 79.6334 83.1561 79.6714C83.213 79.7094 83.262 79.7582 83.3 79.8151C83.3381 79.872 83.3645 79.9359 83.3778 80.0031C83.3912 80.0702 83.3911 80.1393 83.3777 80.2065C83.3642 80.2736 83.3376 80.3374 83.2995 80.3943L80.7473 84.2226C80.7011 84.2918 80.639 84.349 80.5662 84.3893C80.4934 84.4295 80.412 84.4518 80.3288 84.4541C80.324 84.4542 80.3191 84.4543 80.3143 84.4543Z" fill="white"/>
<path d="M70.9763 39.303C72.2027 39.303 73.1968 38.3089 73.1968 37.0825C73.1968 35.8562 72.2027 34.8621 70.9763 34.8621C69.75 34.8621 68.7559 35.8562 68.7559 37.0825C68.7559 38.3089 69.75 39.303 70.9763 39.303Z" fill="#F2F2F2"/>
<path d="M62.8806 103.175C64.107 103.175 65.1011 102.18 65.1011 100.954C65.1011 99.7278 64.107 98.7336 62.8806 98.7336C61.6543 98.7336 60.6602 99.7278 60.6602 100.954C60.6602 102.18 61.6543 103.175 62.8806 103.175Z" fill="#F2F2F2"/>
<path d="M113.951 47.9236C115.177 47.9236 116.171 46.9295 116.171 45.7032C116.171 44.4768 115.177 43.4827 113.951 43.4827C112.725 43.4827 111.73 44.4768 111.73 45.7032C111.73 46.9295 112.725 47.9236 113.951 47.9236Z" fill="#F2F2F2"/>
</g>
<defs>
<clipPath id="clip0_1702_7332">
<rect width="74.705" height="90" fill="white" transform="translate(50 25)"/>
</clipPath>
</defs>
</svg>
