<svg width="32" height="32" viewBox="0 0 32 32" fill="none" xmlns="http://www.w3.org/2000/svg">
<rect width="32" height="32" fill="white"/>
<path fill-rule="evenodd" clip-rule="evenodd" d="M15.3992 14.0803C15.2604 14.3441 14.6663 15.2214 13.4003 16.6206C12.2201 17.925 11.8505 19.6726 12.2053 21.01L12.6496 20.7434V19.2442L14.7318 17.7867L15.9811 18.2031L16.5641 17.7867C16.7029 17.7034 17.0472 17.5618 17.3137 17.6617C17.5802 17.7617 18.4798 18.1476 18.8962 18.328L18.4798 18.8694L17.1471 18.328C17.0639 18.328 16.8556 18.353 16.6891 18.453C16.5225 18.5529 16.342 18.7723 16.2726 18.8694V20.7434L14.7318 21.9511L12.8994 21.3264L12.4356 21.6266C12.5404 21.8371 12.6678 22.0301 12.8172 22.201C13.9832 23.5336 15.7323 24.075 17.523 23.367C19.3137 22.659 20.1466 20.91 19.98 19.5357C19.8135 18.1615 18.6891 15.2464 15.3992 14.0803ZM13.2327 20.9518L15.315 19.3693C15.1817 19.6358 15.2594 20.3688 15.315 20.7019C15.315 20.6047 15.3483 20.3271 15.4815 19.994C15.6148 19.6608 15.8424 19.4387 15.9396 19.3693V20.4937L14.607 21.4932L13.2327 20.9518Z" fill="#1679BC"/>
<path fill-rule="evenodd" clip-rule="evenodd" d="M4.36161 8C5.06956 8.98558 6.90785 11.0029 8.10959 11.9146C8.59973 12.2864 9.2705 12.7703 9.95765 13.2659C10.8317 13.8964 11.7323 14.5461 12.3213 15.0086C11.2436 16.1121 10.5794 17.6212 10.5794 19.2855C10.5794 21.1247 11.3905 22.7745 12.6745 23.8966L9.56715 22.6171L9.31728 19.7853L8.48439 21.701L6.44382 19.4522L8.48439 18.3278L5.486 18.0779L4.11174 14.2466L8.48439 15.2045L4.11174 12.2061C3.98681 11.4981 3.86188 9.66577 4.36161 8Z" fill="#F8CB16"/>
<path fill-rule="evenodd" clip-rule="evenodd" d="M27.6384 8C26.9304 8.98558 25.0922 11.0029 23.8904 11.9146C23.4003 12.2864 22.7295 12.7703 22.0423 13.2659C21.1684 13.8964 20.2679 14.546 19.6789 15.0084C20.7567 16.1119 21.4209 17.6212 21.4209 19.2855C21.4209 21.1246 20.6099 22.7743 19.3261 23.8964L22.4329 22.6171L22.6827 19.7853L23.5156 21.701L25.5562 19.4522L23.5156 18.3278L26.514 18.0779L27.8883 14.2466L23.5156 15.2045L27.8883 12.2061C28.0132 11.4981 28.1381 9.66577 27.6384 8Z" fill="#F8CB16"/>
</svg>
