<svg width="174" height="140" viewBox="0 0 174 140" fill="none" xmlns="http://www.w3.org/2000/svg">
<path d="M145.001 99.5056H71.3516V53.6541H145.001V99.5056ZM73.0652 97.7919H143.287V55.3677H73.0652V97.7919Z" fill="#E5E5E5"/>
<path d="M144.143 54.511H72.207V98.6488H144.143V54.511Z" fill="white"/>
<path d="M144.143 65.6975V62.9874H134.163V54.511H131.453V62.9874H113.687V54.511H110.977V62.9874H83.5757V54.511H80.8657V62.9874H72.207V65.6975H80.8657V76.2366H72.207V78.9467H80.8657V90.2386H72.207V92.9487H95.4699V98.6488H98.1799V92.9487H110.977V98.6488H113.687V92.9487H144.143V90.2386H113.687V78.9467H144.143V76.2366H134.163V65.6975L144.143 65.6975ZM110.977 65.6975V69.0098H83.5757V65.6975H110.977ZM83.5757 71.7199H110.977V76.2366H83.5757V71.7199ZM83.5757 90.2386V78.9467H95.4699V90.2386L83.5757 90.2386ZM110.977 90.2386H98.1799V78.9467H110.977V90.2386ZM131.453 76.2366H113.687V65.6975H131.453V76.2366Z" fill="#E6E6E6"/>
<path d="M125.408 47.9948C125.408 55.1717 112.413 71.1595 112.413 71.1595C112.413 71.1595 99.418 55.1717 99.418 47.9948C99.418 44.5484 100.787 41.2431 103.224 38.8061C105.661 36.3691 108.966 35 112.413 35C115.859 35 119.165 36.3691 121.602 38.8061C124.039 41.2431 125.408 44.5484 125.408 47.9948V47.9948Z" fill="#1679BC"/>
<path d="M118.354 47.4298C118.354 48.6047 118.005 49.7532 117.352 50.7301C116.7 51.707 115.772 52.4684 114.686 52.9181C113.601 53.3677 112.407 53.4853 111.254 53.2561C110.102 53.0269 109.043 52.4611 108.213 51.6303C107.382 50.7995 106.816 49.741 106.587 48.5887C106.358 47.4363 106.475 46.2419 106.925 45.1564C107.374 44.0709 108.136 43.1432 109.113 42.4904C110.09 41.8377 111.238 41.4893 112.413 41.4893C113.193 41.4889 113.966 41.6423 114.687 41.9407C115.408 42.2391 116.063 42.6767 116.615 43.2284C117.166 43.7801 117.604 44.4351 117.902 45.156C118.201 45.8769 118.354 46.6495 118.354 47.4298V47.4298Z" fill="white"/>
<path d="M112.413 80.5384C114.348 80.5384 115.916 78.97 115.916 77.0354C115.916 75.1008 114.348 73.5325 112.413 73.5325C110.478 73.5325 108.91 75.1008 108.91 77.0354C108.91 78.97 110.478 80.5384 112.413 80.5384Z" fill="#1679BC"/>
<path fill-rule="evenodd" clip-rule="evenodd" d="M79.4043 68.3C78.852 68.3 78.4043 68.7478 78.4043 69.3V70.5513H70.5242V69.3002C70.5242 68.7479 70.0765 68.3002 69.5242 68.3002H63.6445C63.0922 68.3002 62.6445 68.7479 62.6445 69.3002V70.5513H58.5136C55.1999 70.5513 52.5136 73.2376 52.5136 76.5513V83.3551H50.2273V73.9283H38.9416L31.7349 85.0811L32.1353 94.9062H31.0676C30.5338 94.9062 30.1335 95.7029 30 96.1012V98.3583C30 99.208 30.7118 99.686 31.0676 99.8188L34.5252 99.8188C34.5111 99.633 34.5039 99.4454 34.5039 99.256C34.5039 95.215 37.7798 91.9391 41.8208 91.9391C45.8618 91.9391 49.1376 95.215 49.1376 99.256C49.1376 99.4454 49.1304 99.633 49.1163 99.8188L52.5131 99.8188H58.1639C58.1498 99.633 58.1426 99.4454 58.1426 99.256C58.1426 95.215 61.4185 91.9391 65.4594 91.9391C69.5004 91.9391 72.7763 95.215 72.7763 99.256C72.7763 99.4454 72.7691 99.633 72.755 99.8188H73.9217C73.9076 99.633 73.9004 99.4454 73.9004 99.256C73.9004 95.215 77.1763 91.9391 81.2173 91.9391C85.2583 91.9391 88.5341 95.215 88.5341 99.256C88.5341 99.4454 88.5269 99.633 88.5128 99.8188H89.0974C89.9979 99.8188 90.5983 99.4436 90.7859 99.256V95.8789C90.7859 94.9784 89.285 94.7533 88.5346 94.7533V91.9391H90.4148C93.7285 91.9391 96.4148 89.2528 96.4148 85.9391V76.5513C96.4148 73.2376 93.7285 70.5513 90.4148 70.5513H86.284V69.3C86.284 68.7478 85.8363 68.3 85.284 68.3H79.4043ZM41.8201 105.447C45.2394 105.447 48.0113 102.675 48.0113 99.2561C48.0113 95.8368 45.2394 93.0649 41.8201 93.0649C38.4008 93.0649 35.6289 95.8368 35.6289 99.2561C35.6289 102.675 38.4008 105.447 41.8201 105.447ZM41.82 102.07C43.3743 102.07 44.6342 100.81 44.6342 99.2562C44.6342 97.702 43.3743 96.442 41.82 96.442C40.2658 96.442 39.0059 97.702 39.0059 99.2562C39.0059 100.81 40.2658 102.07 41.82 102.07ZM65.4568 105.447C68.8761 105.447 71.648 102.675 71.648 99.2561C71.648 95.8368 68.8761 93.0649 65.4568 93.0649C62.0375 93.0649 59.2656 95.8368 59.2656 99.2561C59.2656 102.675 62.0375 105.447 65.4568 105.447ZM65.4568 102.07C67.011 102.07 68.2709 100.81 68.2709 99.2562C68.2709 97.702 67.011 96.442 65.4568 96.442C63.9025 96.442 62.6426 97.702 62.6426 99.2562C62.6426 100.81 63.9025 102.07 65.4568 102.07ZM87.4097 99.2561C87.4097 102.675 84.6378 105.447 81.2185 105.447C77.7992 105.447 75.0273 102.675 75.0273 99.2561C75.0273 95.8368 77.7992 93.0649 81.2185 93.0649C84.6378 93.0649 87.4097 95.8368 87.4097 99.2561ZM84.0328 99.2562C84.0328 100.81 82.7728 102.07 81.2186 102.07C79.6644 102.07 78.4044 100.81 78.4044 99.2562C78.4044 97.702 79.6644 96.442 81.2186 96.442C82.7728 96.442 84.0328 97.702 84.0328 99.2562ZM40.1313 77.3054H43.5083V84.6223H36.1914L40.1313 77.3054Z" fill="#070707"/>
</svg>
