<svg width="174" height="140" viewBox="0 0 174 140" fill="none" xmlns="http://www.w3.org/2000/svg">
<g clip-path="url(#clip0_1702_7265)">
<path d="M133.271 109.88L133.135 109.829C133.106 109.818 130.142 108.683 128.753 106.108C127.365 103.532 128.044 100.432 128.051 100.401L128.083 100.26L128.219 100.311C128.249 100.322 131.213 101.457 132.601 104.032C133.99 106.608 133.31 109.708 133.303 109.739L133.271 109.88ZM128.975 105.988C130.149 108.165 132.492 109.281 133.085 109.536C133.198 108.9 133.552 106.327 132.379 104.152C131.206 101.977 128.863 100.86 128.269 100.604C128.156 101.241 127.803 103.813 128.975 105.988Z" fill="#3F3D56"/>
<path d="M129.814 105.204C132.31 106.706 133.271 109.688 133.271 109.688C133.271 109.688 130.186 110.236 127.691 108.734C125.195 107.233 124.234 104.251 124.234 104.251C124.234 104.251 127.319 103.703 129.814 105.204Z" fill="#1679BC"/>
<path d="M89.6429 68.2338C89.7638 68.0467 89.9229 67.8873 90.1098 67.7661C90.2966 67.6448 90.507 67.5644 90.727 67.5301C90.9471 67.4958 91.172 67.5084 91.3869 67.567C91.6017 67.6257 91.8018 67.7291 91.9739 67.8704C92.0282 67.9154 92.0793 67.9642 92.1268 68.0163L98.341 67.1116L98.6869 62.4387C98.7134 62.0802 98.8812 61.7469 99.1534 61.5121C99.4256 61.2773 99.7799 61.1603 100.138 61.1868C100.497 61.2133 100.83 61.3811 101.065 61.6533C101.3 61.9255 101.417 62.2799 101.39 62.6383C101.39 62.6467 101.389 62.655 101.388 62.6633L100.782 69.2203L100.78 69.2349C100.701 69.4869 100.543 69.7069 100.329 69.862C100.115 70.0172 99.8573 70.0993 99.5932 70.0962L92.2839 69.97C92.2555 70.0133 92.2249 70.0551 92.1922 70.0952C92.0508 70.2673 91.8746 70.4076 91.6752 70.5069C91.4758 70.6062 91.2577 70.6622 91.0351 70.6713C90.8126 70.6804 90.5906 70.6424 90.3838 70.5597C90.1769 70.4771 89.9899 70.3517 89.8349 70.1917C89.8034 70.1594 89.7736 70.1261 89.7454 70.0918C89.5348 69.8324 89.4115 69.5131 89.393 69.1794C89.3746 68.8457 89.4621 68.5148 89.6429 68.2338V68.2338Z" fill="#FFB7B7"/>
<path d="M102.17 108.076L100.398 108.076L99.5547 101.24L102.171 101.24L102.17 108.076Z" fill="#FFB7B7"/>
<path d="M102.623 109.794L96.9082 109.794V109.722C96.9082 109.132 97.1426 108.566 97.5598 108.149C97.9769 107.732 98.5427 107.498 99.1326 107.498H99.1327L102.623 107.498L102.623 109.794Z" fill="#2F2E41"/>
<path d="M114.556 106.469L112.878 107.041L109.873 100.843L112.349 99.999L114.556 106.469Z" fill="#FFB7B7"/>
<path d="M115.538 107.95L110.129 109.794L110.105 109.726C109.915 109.168 109.954 108.557 110.214 108.027C110.474 107.498 110.934 107.093 111.493 106.903L111.493 106.903L114.796 105.776L115.538 107.95Z" fill="#2F2E41"/>
<path d="M104.121 48.3023C104.121 48.3023 102.356 47.7197 101.222 50.0501C100.088 52.3805 98.3242 54.9439 98.3242 54.9439L99.3323 55.177C99.3323 55.177 99.5843 53.5457 100.214 53.3127L99.9623 55.41C99.9623 55.41 107.523 57.8569 110.925 55.177L110.799 54.3613C110.799 54.3613 111.303 54.4779 111.303 55.177L111.681 54.8274C111.681 54.8274 111.303 54.1283 110.169 53.1962C109.424 52.5843 109.169 51.4203 109.081 50.6926C109.011 50.0765 108.747 49.4986 108.327 49.0427C107.573 48.2351 106.2 47.3766 104.121 48.3023Z" fill="#2F2E41"/>
<path d="M104.773 56.4443C106.552 56.4443 107.995 55.0017 107.995 53.2223C107.995 51.4428 106.552 50.0002 104.773 50.0002C102.993 50.0002 101.551 51.4428 101.551 53.2223C101.551 55.0017 102.993 56.4443 104.773 56.4443Z" fill="#FFB7B7"/>
<path d="M100.476 59.0974L99.8904 58.9021C99.8904 58.9021 98.7187 59.3903 98.7187 60.269C98.7187 61.1477 98.5234 64.6627 98.5234 64.6627L101.16 64.9556L100.476 59.0974Z" fill="#CBCBCB"/>
<path d="M110.962 78.3023C110.719 78.03 110.582 77.6796 110.576 77.3147C110.569 76.9498 110.694 76.5948 110.927 76.3142L109.283 62.5414C109.267 62.2166 109.38 61.8987 109.598 61.6574C109.816 61.4162 110.121 61.2713 110.446 61.2546C110.77 61.2378 111.089 61.3506 111.33 61.5682C111.572 61.7858 111.717 62.0903 111.735 62.415C111.735 62.4195 111.735 62.424 111.735 62.4285L113.207 76.2159C113.26 76.2695 113.309 76.327 113.354 76.3881C113.472 76.5513 113.556 76.7361 113.603 76.932C113.65 77.1279 113.657 77.3311 113.625 77.53C113.593 77.7288 113.522 77.9194 113.417 78.0908C113.311 78.2623 113.173 78.4113 113.01 78.5293C112.993 78.5415 112.976 78.5534 112.958 78.5649C112.769 78.69 112.555 78.7716 112.331 78.8041C112.107 78.8365 111.878 78.8189 111.661 78.7525C111.391 78.6705 111.149 78.5146 110.962 78.3023Z" fill="#FFB7B7"/>
<path d="M109.455 64.6626L112.091 64.3697C112.091 64.3697 111.896 60.8548 111.896 59.976C111.896 59.0973 110.724 58.6091 110.724 58.6091L110.139 58.8044L109.455 64.6626Z" fill="#CBCBCB"/>
<path d="M100.867 69.5396C100.867 69.5396 98.6211 73.6453 98.6211 78.6248C98.6211 83.6042 98.4258 106.451 98.4258 106.451C98.4258 106.451 101.355 107.818 103.112 106.158L104.675 80.8704L110.826 105.67C110.826 105.67 113.755 106.256 115.122 105.28L112.485 87.9979C112.485 87.9979 111.411 71.7902 108.482 70.6186C105.553 69.4469 100.867 69.5396 100.867 69.5396Z" fill="#2F2E41"/>
<path d="M101.29 53.2426C102.431 52.4172 103.354 51.4664 103.965 50.3354C103.965 50.3354 106.058 52.6612 107.337 52.7775C108.616 52.8938 107.454 49.9865 107.454 49.9865L105.128 49.405L102.918 49.6376L101.174 50.8005L101.29 53.2426Z" fill="#2F2E41"/>
<path d="M107.993 58.0235C107.993 58.0235 108.086 57.9736 102.525 58.1761L100.198 58.817L99.8887 58.9022C99.8887 58.9022 100.182 64.7604 100.963 65.8344C101.744 66.9084 101.548 67.4943 101.353 67.5919C101.158 67.6895 100.67 67.4943 100.963 67.9824C101.256 68.4706 101.646 68.1777 101.256 68.4706C100.865 68.7635 100.67 69.8375 100.67 69.8375L109.262 71.0092C109.262 71.0092 109.555 67.2014 110.336 65.2486C111.117 63.2959 111.312 62.5148 111.312 62.5148L110.726 58.6093L107.993 58.0235Z" fill="#CBCBCB"/>
<path d="M91.6586 41.3692H91.1646V27.8339C91.1646 25.7562 90.3392 23.7636 88.8701 22.2945C87.4009 20.8254 85.4084 20 83.3307 20H54.6542C52.5765 20 50.584 20.8253 49.1148 22.2945C47.6457 23.7636 46.8203 25.7562 46.8203 27.8339V102.09C46.8203 104.167 47.6457 106.16 49.1148 107.629C50.5839 109.098 52.5765 109.924 54.6542 109.924H83.3306C84.3594 109.924 85.3781 109.721 86.3285 109.327C87.279 108.934 88.1426 108.357 88.87 107.629C89.5975 106.902 90.1745 106.038 90.5682 105.088C90.9619 104.137 91.1645 103.119 91.1646 102.09V102.09V51.0039H91.6586L91.6586 41.3692Z" fill="#3F3D56"/>
<path d="M89.4975 27.889V102.036C89.4982 102.803 89.3477 103.564 89.0545 104.273C88.7614 104.982 88.3314 105.627 87.7892 106.17C87.2469 106.714 86.6029 107.145 85.894 107.439C85.185 107.734 84.4251 107.886 83.6575 107.886H54.8329C53.2823 107.887 51.7949 107.272 50.6977 106.177C49.6005 105.081 48.9835 103.595 48.9824 102.044V27.889C48.9819 27.1213 49.1326 26.3609 49.4259 25.6514C49.7192 24.9419 50.1494 24.2971 50.6919 23.7538C51.2344 23.2106 51.8786 22.7795 52.5877 22.4852C53.2968 22.1909 54.0569 22.0391 54.8246 22.0386H58.3283C58.1561 22.4606 58.0904 22.9185 58.137 23.3719C58.1835 23.8253 58.3408 24.2603 58.5951 24.6385C58.8493 25.0168 59.1927 25.3267 59.595 25.541C59.9972 25.7553 60.446 25.8674 60.9018 25.8673H77.3306C77.7864 25.8674 78.2352 25.7553 78.6374 25.541C79.0397 25.3267 79.3831 25.0168 79.6374 24.6385C79.8916 24.2603 80.0489 23.8253 80.0955 23.3719C80.142 22.9185 80.0763 22.4606 79.9041 22.0386H83.647C85.1973 22.0372 86.6846 22.6517 87.7818 23.7469C88.8789 24.8421 89.4961 26.3283 89.4975 27.8785V27.889L89.4975 27.889Z" fill="white"/>
<path d="M89.4975 38.8586V36.333H85.675V22.3995C85.0258 22.1597 84.3391 22.0374 83.647 22.0383H83.1495V36.333H69.8903V25.8671H67.3647V36.333H56.2522V22.0383H54.8329C54.4616 22.0378 54.0912 22.0729 53.7267 22.1432V36.333H48.9824V38.8586H53.7267V44.7003L48.9825 47.4392V50.3563L53.7267 47.6173V64.9982H48.9824V67.5237H53.7267V92.6531H48.9824V95.1786H53.7267V107.781C54.0912 107.851 54.4616 107.887 54.8329 107.886H56.2522V95.1786H67.3647V107.886H69.8903V95.1786H83.1495V107.886H83.647C84.3391 107.887 85.0258 107.765 85.675 107.525V95.1786H89.4975V92.6531H85.675V81.6669H89.4634V79.1413H85.675V67.5237H89.4975V64.9982H85.675V49.5922H89.4975V47.0667H85.675V38.8586L89.4975 38.8586ZM63.8454 38.8586L63.8454 38.8586L56.2523 43.243L56.2522 43.243V38.8586H63.8454ZM56.2522 46.1588L56.2523 46.1588L67.3647 39.7426V64.9982H56.2522V46.1588ZM56.2522 92.6531V67.5237H67.3647V92.6531H56.2522ZM83.1495 92.6531H69.8903V81.6669H83.1495V92.6531ZM83.1495 79.1413H69.8903V67.5237H83.1495V79.1413ZM83.1495 64.9982H69.8903V49.5922H83.1495V64.9982ZM83.1495 47.0667H69.8903V38.8586H83.1495V47.0667Z" fill="#E5E5E5"/>
<path d="M91.6104 47.1133C91.6104 55.1336 77.0884 73.0003 77.0884 73.0003C77.0884 73.0003 62.5664 55.1336 62.5664 47.1133C62.5664 43.2618 64.0964 39.5681 66.8198 36.8447C69.5432 34.1213 73.2369 32.5913 77.0884 32.5913C80.9399 32.5913 84.6336 34.1213 87.357 36.8447C90.0804 39.5681 91.6104 43.2618 91.6104 47.1133V47.1133Z" fill="#1679BC"/>
<path d="M85.6758 46.4822C85.6758 48.1805 85.1722 49.8407 84.2286 51.2528C83.2851 52.6649 81.944 53.7655 80.3749 54.4154C78.8059 55.0654 77.0793 55.2354 75.4136 54.9041C73.7479 54.5728 72.2179 53.7549 71.017 52.554C69.8161 51.3531 68.9983 49.8231 68.667 48.1574C68.3356 46.4917 68.5057 44.7652 69.1556 43.1961C69.8055 41.6271 70.9061 40.286 72.3182 39.3424C73.7303 38.3989 75.3905 37.8953 77.0889 37.8953C78.216 37.8947 79.3322 38.1162 80.3737 38.5471C81.4153 38.9779 82.3617 39.6097 83.1591 40.4064C83.9565 41.203 84.5891 42.1489 85.0209 43.19C85.4527 44.2312 85.6753 45.3472 85.6758 46.4743V46.4822Z" fill="white"/>
<path d="M77.0584 49.8717C78.8252 49.8717 80.2575 48.4395 80.2575 46.6727C80.2575 44.9059 78.8252 43.4736 77.0584 43.4736C75.2916 43.4736 73.8594 44.9059 73.8594 46.6727C73.8594 48.4395 75.2916 49.8717 77.0584 49.8717Z" fill="#1679BC"/>
<path d="M81.7017 53.9792C80.3227 54.8561 78.7222 55.3218 77.088 55.3215C75.4537 55.3213 73.8534 54.8552 72.4746 53.9779C72.7614 52.9756 73.3668 52.0939 74.1993 51.4662C75.0318 50.8386 76.0461 50.4991 77.0886 50.4993C78.1312 50.4994 79.1454 50.8391 79.9777 51.467C80.8101 52.0949 81.4152 52.9768 81.7017 53.9792V53.9792Z" fill="#1679BC"/>
<path d="M77.0884 83.4816C79.2504 83.4816 81.0031 81.7289 81.0031 79.567C81.0031 77.405 79.2504 75.6523 77.0884 75.6523C74.9265 75.6523 73.1738 77.405 73.1738 79.567C73.1738 81.7289 74.9265 83.4816 77.0884 83.4816Z" fill="#1679BC"/>
<path d="M137.654 110H36.1263C36.0928 110 36.0607 109.987 36.037 109.963C36.0133 109.939 36 109.907 36 109.874C36 109.84 36.0133 109.808 36.037 109.785C36.0607 109.761 36.0928 109.748 36.1263 109.748H137.654C137.687 109.748 137.719 109.761 137.743 109.785C137.767 109.808 137.78 109.84 137.78 109.874C137.78 109.907 137.767 109.939 137.743 109.963C137.719 109.987 137.687 110 137.654 110Z" fill="#CBCBCB"/>
</g>
<defs>
<clipPath id="clip0_1702_7265">
<rect width="101.78" height="90" fill="white" transform="translate(36 20)"/>
</clipPath>
</defs>
</svg>
