<svg width="174" height="140" viewBox="0 0 174 140" fill="none" xmlns="http://www.w3.org/2000/svg">
<g clip-path="url(#clip0_1702_7358)">
<path d="M145 63.7165H144.806V58.3906C144.806 57.9858 144.726 57.585 144.572 57.211C144.417 56.837 144.19 56.4972 143.904 56.2109C143.618 55.9247 143.279 55.6977 142.905 55.5427C142.532 55.3878 142.131 55.3081 141.727 55.3081H130.454C130.05 55.3081 129.65 55.3878 129.276 55.5427C128.902 55.6977 128.563 55.9247 128.277 56.2109C127.991 56.4972 127.764 56.837 127.609 57.211C127.455 57.585 127.375 57.9858 127.375 58.3906V87.6088C127.375 88.0136 127.455 88.4144 127.609 88.7884C127.764 89.1624 127.991 89.5022 128.277 89.7884C128.563 90.0747 128.902 90.3017 129.276 90.4566C129.65 90.6115 130.05 90.6913 130.454 90.6913H141.727C142.131 90.6913 142.532 90.6115 142.905 90.4566C143.279 90.3017 143.618 90.0747 143.904 89.7884C144.19 89.5022 144.417 89.1624 144.572 88.7884C144.726 88.4144 144.806 88.0136 144.806 87.6088V67.5075H145V63.7165Z" fill="#3F3D56"/>
<path d="M144.15 58.5718V87.7475C144.15 88.358 143.908 88.9436 143.476 89.3754C143.045 89.8071 142.46 90.0497 141.85 90.0497H130.524C130.222 90.0497 129.923 89.9901 129.644 89.8744C129.365 89.7587 129.111 89.5891 128.898 89.3753C128.684 89.1615 128.515 88.9077 128.399 88.6284C128.284 88.3491 128.225 88.0497 128.225 87.7475V58.5718C128.225 57.9614 128.467 57.3761 128.898 56.9445C129.329 56.513 129.914 56.2705 130.524 56.2705H131.898C131.83 56.4366 131.805 56.6166 131.823 56.7949C131.841 56.9732 131.903 57.1443 132.003 57.293C132.103 57.4418 132.238 57.5637 132.396 57.648C132.554 57.7324 132.73 57.7766 132.909 57.7768H139.367C139.546 57.7771 139.723 57.7332 139.881 57.649C140.04 57.5648 140.175 57.4429 140.275 57.294C140.375 57.1451 140.437 56.9738 140.455 56.7953C140.473 56.6168 140.447 56.4365 140.379 56.2705H141.85C142.46 56.2705 143.045 56.5129 143.476 56.9444C143.907 57.376 144.15 57.9613 144.15 58.5718Z" fill="#D0CDE1"/>
<path d="M142.007 71.2078H128.84V74.7642H142.007V71.2078Z" fill="#1679BC"/>
<path d="M142.529 74.1368H129.78C129.697 74.1367 129.617 74.1036 129.559 74.0448C129.5 73.9859 129.467 73.9062 129.467 73.823V70.6849C129.467 70.6017 129.5 70.5219 129.559 70.4631C129.617 70.4043 129.697 70.3712 129.78 70.3711H142.529C142.612 70.3712 142.692 70.4043 142.751 70.4631C142.809 70.5219 142.842 70.6017 142.843 70.6849V73.823C142.842 73.9062 142.809 73.9859 142.751 74.0448C142.692 74.1036 142.612 74.1367 142.529 74.1368ZM129.78 70.5803C129.753 70.5803 129.726 70.5914 129.706 70.611C129.687 70.6306 129.676 70.6572 129.676 70.6849V73.823C129.676 73.8507 129.687 73.8773 129.706 73.8969C129.726 73.9165 129.753 73.9276 129.78 73.9276H142.529C142.557 73.9276 142.583 73.9165 142.603 73.8969C142.622 73.8773 142.634 73.8507 142.634 73.823V70.6849C142.633 70.6572 142.622 70.6306 142.603 70.611C142.583 70.5914 142.557 70.5803 142.529 70.5803H129.78Z" fill="#3F3D56"/>
<path d="M131.975 73.1953H130.303V73.4045H131.975V73.1953Z" fill="#3F3D56"/>
<path d="M134.274 73.1953H132.602V73.4045H134.274V73.1953Z" fill="#3F3D56"/>
<path d="M136.572 73.1953H134.9V73.4045H136.572V73.1953Z" fill="#3F3D56"/>
<path d="M138.871 73.1953H137.199V73.4045H138.871V73.1953Z" fill="#3F3D56"/>
<path d="M141.17 73.1953H139.498V73.4045H141.17V73.1953Z" fill="#3F3D56"/>
<path opacity="0.1" d="M144.15 84.781V87.7475C144.15 88.3581 143.908 88.9437 143.476 89.3754C143.045 89.8072 142.46 90.0498 141.85 90.0498H130.524C130.222 90.0498 129.923 89.9902 129.644 89.8745C129.365 89.7587 129.111 89.5891 128.898 89.3753C128.684 89.1615 128.515 88.9077 128.399 88.6284C128.284 88.3491 128.225 88.0498 128.225 87.7475V74.1011L144.15 84.781Z" fill="black"/>
<path d="M89.8611 82.0864H40.4336V106.354H89.8611V82.0864Z" fill="#D0CDE1"/>
<path opacity="0.1" d="M77.2952 106.354H40.6426C40.5872 106.354 40.5341 106.332 40.495 106.293C40.4558 106.254 40.4338 106.2 40.4336 106.145V82.2956C40.4338 82.2402 40.4558 82.1871 40.495 82.1479C40.5341 82.1087 40.5872 82.0866 40.6426 82.0864H41.1066L77.2952 106.354Z" fill="black"/>
<path d="M139.915 85.3291H63.3184V85.5383H139.915V85.3291Z" fill="#3F3D56"/>
<path d="M87.5357 34.4516H65.6445V34H55.7181V34.4516H33.7366C33.5422 34.4516 33.3496 34.49 33.17 34.5645C32.9903 34.639 32.8271 34.7482 32.6896 34.8858C32.5521 35.0234 32.443 35.1868 32.3686 35.3667C32.2942 35.5465 32.2559 35.7393 32.2559 35.9339V65.9397C32.2559 66.3328 32.4119 66.7098 32.6896 66.9878C32.9673 67.2658 33.3439 67.422 33.7366 67.422H87.5357C87.9284 67.422 88.3051 67.2658 88.5828 66.9878C88.8604 66.7098 89.0165 66.3328 89.0165 65.9397V35.9339C89.0165 35.7393 88.9782 35.5465 88.9037 35.3667C88.8293 35.1868 88.7203 35.0234 88.5828 34.8858C88.4452 34.7482 88.282 34.639 88.1023 34.5645C87.9227 34.49 87.7301 34.4516 87.5357 34.4516V34.4516Z" fill="#3F3D56"/>
<path d="M87.0314 37.0708H34.2422V66.8804H87.0314V37.0708Z" fill="#D0CDE1"/>
<path d="M60.5903 36.2583C60.8893 36.2583 61.1317 36.0156 61.1317 35.7163C61.1317 35.417 60.8893 35.1743 60.5903 35.1743C60.2912 35.1743 60.0488 35.417 60.0488 35.7163C60.0488 36.0156 60.2912 36.2583 60.5903 36.2583Z" fill="#1679BC"/>
<path d="M49.9444 48.1953H48.6904C48.6073 48.1953 48.5276 48.1622 48.4689 48.1033C48.4101 48.0445 48.377 47.9647 48.377 47.8815V46.6263C48.377 46.5431 48.4101 46.4633 48.4689 46.4045C48.5276 46.3457 48.6073 46.3126 48.6904 46.3125H49.9444C50.0275 46.3126 50.1072 46.3457 50.166 46.4045C50.2248 46.4633 50.2578 46.5431 50.2579 46.6263V47.8815C50.2578 47.9647 50.2248 48.0445 50.166 48.1033C50.1072 48.1622 50.0275 48.1953 49.9444 48.1953V48.1953ZM48.6904 46.5217C48.6627 46.5217 48.6362 46.5328 48.6166 46.5524C48.597 46.572 48.586 46.5986 48.5859 46.6263V47.8815C48.586 47.9093 48.597 47.9359 48.6166 47.9555C48.6362 47.9751 48.6627 47.9861 48.6904 47.9861H49.9444C49.9721 47.9861 49.9987 47.9751 50.0183 47.9555C50.0379 47.9359 50.0489 47.9093 50.0489 47.8815V46.6263C50.0489 46.5986 50.0379 46.572 50.0183 46.5524C49.9987 46.5328 49.9721 46.5217 49.9444 46.5217H48.6904Z" fill="#3F3D56"/>
<path d="M72.306 47.9861H48.4805V48.1953H72.306V47.9861Z" fill="#3F3D56"/>
<path d="M71.679 53.7393H66.1406V55.4129H71.679V53.7393Z" fill="#1679BC"/>
<path d="M72.098 54.9944H66.9776C66.8944 54.9943 66.8148 54.9612 66.756 54.9024C66.6972 54.8436 66.6642 54.7638 66.6641 54.6806V53.4254C66.6642 53.3422 66.6972 53.2624 66.756 53.2036C66.8148 53.1448 66.8944 53.1117 66.9776 53.1116H72.098C72.1811 53.1117 72.2608 53.1448 72.3195 53.2036C72.3783 53.2624 72.4114 53.3422 72.4114 53.4254V54.6806C72.4114 54.7638 72.3783 54.8436 72.3195 54.9024C72.2608 54.9612 72.1811 54.9943 72.098 54.9944V54.9944ZM66.9776 53.3208C66.9499 53.3208 66.9233 53.3318 66.9037 53.3515C66.8841 53.3711 66.8731 53.3976 66.8731 53.4254V54.6806C66.8731 54.7083 66.8841 54.7349 66.9037 54.7545C66.9233 54.7741 66.9499 54.7852 66.9776 54.7852H72.098C72.1257 54.7852 72.1522 54.7741 72.1718 54.7545C72.1914 54.7349 72.2024 54.7083 72.2025 54.6806V53.4254C72.2024 53.3976 72.1914 53.3711 72.1718 53.3515C72.1522 53.3318 72.1257 53.3208 72.098 53.3208H66.9776Z" fill="#3F3D56"/>
<path d="M114.001 55.6221H103.551V62.9442H114.001V55.6221Z" fill="#1679BC"/>
<path d="M115.045 62.369H105.014C104.903 62.3689 104.797 62.3248 104.718 62.2463C104.64 62.1679 104.596 62.0615 104.596 61.9506V55.0468C104.596 54.9359 104.64 54.8295 104.718 54.7511C104.797 54.6727 104.903 54.6285 105.014 54.6284H115.045C115.156 54.6285 115.263 54.6727 115.341 54.7511C115.419 54.8295 115.463 54.9359 115.463 55.0468V61.9506C115.463 62.0615 115.419 62.1679 115.341 62.2463C115.263 62.3248 115.156 62.3689 115.045 62.369V62.369ZM105.014 55.0468V61.9506H115.046L115.045 55.0468H105.014Z" fill="#3F3D56"/>
<path d="M113.897 54.7853H113.479C113.479 53.8698 113.116 52.9918 112.469 52.3445C111.822 51.6971 110.945 51.3334 110.03 51.3334C109.116 51.3334 108.239 51.6971 107.592 52.3445C106.945 52.9918 106.582 53.8698 106.582 54.7853H106.164C106.164 53.7589 106.571 52.7744 107.297 52.0486C108.022 51.3228 109.005 50.915 110.03 50.915C111.056 50.915 112.039 51.3228 112.764 52.0486C113.49 52.7744 113.897 53.7589 113.897 54.7853V54.7853Z" fill="#3F3D56"/>
<path d="M111.074 57.6618C111.075 57.4796 111.027 57.3006 110.937 57.1423C110.847 56.9841 110.717 56.8522 110.56 56.7596C110.404 56.6671 110.226 56.6171 110.044 56.6146C109.862 56.6121 109.682 56.6573 109.523 56.7455C109.364 56.8338 109.23 56.9621 109.136 57.1179C109.042 57.2736 108.989 57.4513 108.985 57.6334C108.98 57.8155 109.023 57.9956 109.109 58.156C109.195 58.3165 109.322 58.4516 109.476 58.548V59.6707C109.476 59.7435 109.49 59.8155 109.518 59.8827C109.546 59.9498 109.587 60.0109 109.638 60.0623C109.69 60.1137 109.751 60.1545 109.818 60.1824C109.885 60.2102 109.957 60.2245 110.029 60.2245V60.2245C110.176 60.2245 110.317 60.1662 110.421 60.0623C110.524 59.9585 110.583 59.8176 110.583 59.6707V58.548C110.733 58.4542 110.857 58.3237 110.943 58.1686C111.029 58.0136 111.074 57.8391 111.074 57.6618V57.6618Z" fill="#3F3D56"/>
<path d="M61.3868 92.8604H59.7148V93.0696H61.3868V92.8604Z" fill="#3F3D56"/>
<path d="M63.6837 92.8604H62.0117V93.0696H63.6837V92.8604Z" fill="#3F3D56"/>
<path d="M65.9845 92.8604H64.3125V93.0696H65.9845V92.8604Z" fill="#3F3D56"/>
<path d="M68.2833 92.8604H66.6113V93.0696H68.2833V92.8604Z" fill="#3F3D56"/>
<path d="M70.5821 92.8604H68.9102V93.0696H70.5821V92.8604Z" fill="#3F3D56"/>
<path d="M92.0564 104.576H43.0469C42.9361 104.576 42.8298 104.532 42.7515 104.453C42.6731 104.375 42.629 104.269 42.6289 104.158V80.3083C42.629 80.1974 42.6731 80.091 42.7515 80.0126C42.8298 79.9341 42.9361 79.89 43.0469 79.8899H92.0564C92.1672 79.89 92.2734 79.9341 92.3518 80.0126C92.4302 80.091 92.4742 80.1974 92.4744 80.3083V104.158C92.4742 104.269 92.4302 104.375 92.3518 104.453C92.2734 104.532 92.1672 104.576 92.0564 104.576V104.576ZM43.0469 80.3083V104.158H92.0567L92.0564 80.3083H43.0469Z" fill="#3F3D56"/>
<path d="M45.2403 83.8646C45.5865 83.8646 45.8673 83.5836 45.8673 83.237C45.8673 82.8904 45.5865 82.6094 45.2403 82.6094C44.894 82.6094 44.6133 82.8904 44.6133 83.237C44.6133 83.5836 44.894 83.8646 45.2403 83.8646Z" fill="#3F3D56"/>
<path d="M47.4356 83.8646C47.7819 83.8646 48.0626 83.5836 48.0626 83.237C48.0626 82.8904 47.7819 82.6094 47.4356 82.6094C47.0893 82.6094 46.8086 82.8904 46.8086 83.237C46.8086 83.5836 47.0893 83.8646 47.4356 83.8646Z" fill="#3F3D56"/>
<path d="M49.6309 83.8646C49.9772 83.8646 50.2579 83.5836 50.2579 83.237C50.2579 82.8904 49.9772 82.6094 49.6309 82.6094C49.2846 82.6094 49.0039 82.8904 49.0039 83.237C49.0039 83.5836 49.2846 83.8646 49.6309 83.8646Z" fill="#3F3D56"/>
<path d="M72.202 94.3247H58.0947C58.0116 94.3246 57.9319 94.2915 57.8732 94.2327C57.8144 94.1739 57.7813 94.0941 57.7812 94.0109V90.4544C57.7813 90.3712 57.8144 90.2915 57.8732 90.2326C57.9319 90.1738 58.0116 90.1407 58.0947 90.1406H72.202C72.2851 90.1407 72.3648 90.1738 72.4235 90.2326C72.4823 90.2915 72.5154 90.3712 72.5155 90.4544V94.0109C72.5154 94.0941 72.4823 94.1739 72.4235 94.2327C72.3648 94.2915 72.2851 94.3246 72.202 94.3247V94.3247ZM58.0947 90.3498C58.067 90.3499 58.0405 90.3609 58.0209 90.3805C58.0013 90.4001 57.9903 90.4267 57.9902 90.4544V94.0109C57.9903 94.0386 58.0013 94.0652 58.0209 94.0849C58.0405 94.1045 58.067 94.1155 58.0947 94.1155H72.202C72.2297 94.1155 72.2562 94.1045 72.2758 94.0849C72.2954 94.0652 72.3064 94.0386 72.3065 94.0109V90.4544C72.3064 90.4267 72.2954 90.4001 72.2758 90.3805C72.2562 90.3609 72.2297 90.3499 72.202 90.3498H58.0947Z" fill="#3F3D56"/>
<path d="M75.756 94.4295C76.7948 94.4295 77.6369 93.5865 77.6369 92.5467C77.6369 91.5068 76.7948 90.6638 75.756 90.6638C74.7171 90.6638 73.875 91.5068 73.875 92.5467C73.875 93.5865 74.7171 94.4295 75.756 94.4295Z" fill="#1679BC"/>
<path d="M76.3819 94.2202C75.9893 94.2202 75.6054 94.1037 75.2789 93.8853C74.9524 93.6669 74.6979 93.3565 74.5476 92.9934C74.3973 92.6302 74.358 92.2306 74.4346 91.8451C74.5112 91.4595 74.7003 91.1054 74.978 90.8275C75.2557 90.5495 75.6095 90.3602 75.9946 90.2836C76.3797 90.2069 76.779 90.2462 77.1417 90.3966C77.5045 90.5471 77.8146 90.8018 78.0328 91.1286C78.251 91.4555 78.3674 91.8397 78.3674 92.2328C78.3668 92.7597 78.1574 93.2649 77.7852 93.6375C77.413 94.0101 76.9083 94.2197 76.3819 94.2202V94.2202ZM76.3819 90.4546C76.0306 90.4546 75.6871 90.5589 75.395 90.7543C75.1029 90.9497 74.8752 91.2274 74.7407 91.5523C74.6063 91.8772 74.5711 92.2348 74.6396 92.5797C74.7082 92.9247 74.8774 93.2415 75.1258 93.4902C75.3742 93.7389 75.6908 93.9083 76.0354 93.9769C76.38 94.0455 76.7372 94.0103 77.0618 93.8757C77.3864 93.7411 77.6638 93.5132 77.859 93.2207C78.0542 92.9283 78.1584 92.5845 78.1584 92.2328C78.1579 91.7613 77.9706 91.3094 77.6375 90.976C77.3045 90.6426 76.8529 90.4551 76.3819 90.4546V90.4546Z" fill="#3F3D56"/>
<path d="M76.4101 92.9752L75.3984 91.9624L75.694 91.6666L76.3543 92.3275L78.1968 89.7065L78.5386 89.9474L76.4101 92.9752Z" fill="#3F3D56"/>
<path opacity="0.1" d="M75.3276 66.8803H34.2422V39.3291L75.3276 66.8803Z" fill="black"/>
<path d="M90.4988 66.3381H85.3469V65.9665C85.3469 65.9568 85.3449 65.9472 85.3413 65.9383C85.3376 65.9294 85.3321 65.9212 85.3253 65.9144C85.3185 65.9076 85.3103 65.9021 85.3014 65.8984C85.2925 65.8947 85.2829 65.8928 85.2733 65.8928H83.5069C83.4972 65.8928 83.4876 65.8947 83.4787 65.8984C83.4698 65.9021 83.4617 65.9076 83.4548 65.9144C83.448 65.9212 83.4426 65.9294 83.4389 65.9383C83.4352 65.9472 83.4333 65.9568 83.4333 65.9665V66.3381H82.3293V65.9665C82.3293 65.9568 82.3274 65.9472 82.3237 65.9383C82.32 65.9294 82.3145 65.9212 82.3077 65.9144C82.3009 65.9076 82.2928 65.9021 82.2838 65.8984C82.2749 65.8947 82.2653 65.8928 82.2557 65.8928H80.4893C80.4796 65.8928 80.47 65.8947 80.4611 65.8984C80.4522 65.9021 80.4441 65.9076 80.4372 65.9144C80.4304 65.9212 80.425 65.9294 80.4213 65.9383C80.4176 65.9472 80.4157 65.9568 80.4157 65.9665V66.3381H79.3117V65.9665C79.3117 65.9568 79.3098 65.9472 79.3061 65.9383C79.3024 65.9294 79.297 65.9212 79.2901 65.9144C79.2833 65.9076 79.2752 65.9021 79.2663 65.8984C79.2573 65.8947 79.2478 65.8928 79.2381 65.8928H77.4717C77.462 65.8928 77.4525 65.8947 77.4435 65.8984C77.4346 65.9021 77.4265 65.9076 77.4197 65.9144C77.4128 65.9212 77.4074 65.9294 77.4037 65.9383C77.4 65.9472 77.3981 65.9568 77.3981 65.9665V66.3381H76.2941V65.9665C76.2941 65.9568 76.2922 65.9472 76.2885 65.9383C76.2848 65.9294 76.2794 65.9212 76.2726 65.9144C76.2657 65.9076 76.2576 65.9021 76.2487 65.8984C76.2397 65.8947 76.2302 65.8928 76.2205 65.8928H74.4541C74.4445 65.8928 74.4349 65.8947 74.426 65.8984C74.417 65.9021 74.4089 65.9076 74.4021 65.9144C74.3952 65.9212 74.3898 65.9294 74.3861 65.9383C74.3824 65.9472 74.3805 65.9568 74.3805 65.9665V66.3381H73.2765V65.9665C73.2765 65.9568 73.2746 65.9472 73.2709 65.9383C73.2672 65.9294 73.2618 65.9212 73.255 65.9144C73.2481 65.9076 73.24 65.9021 73.2311 65.8984C73.2222 65.8947 73.2126 65.8928 73.2029 65.8928H71.4365C71.4269 65.8928 71.4173 65.8947 71.4084 65.8984C71.3994 65.9021 71.3913 65.9076 71.3845 65.9144C71.3777 65.9212 71.3722 65.9294 71.3685 65.9383C71.3648 65.9472 71.3629 65.9568 71.3629 65.9665V66.3381H70.2589V65.9665C70.2589 65.9568 70.257 65.9472 70.2533 65.9383C70.2497 65.9294 70.2442 65.9212 70.2374 65.9144C70.2306 65.9076 70.2224 65.9021 70.2135 65.8984C70.2046 65.8947 70.195 65.8928 70.1853 65.8928H68.419C68.4093 65.8928 68.3997 65.8947 68.3908 65.8984C68.3819 65.9021 68.3738 65.9076 68.3669 65.9144C68.3601 65.9212 68.3547 65.9294 68.351 65.9383C68.3473 65.9472 68.3454 65.9568 68.3454 65.9665V66.3381H67.2414V65.9665C67.2414 65.9568 67.2395 65.9472 67.2358 65.9383C67.2321 65.9294 67.2266 65.9212 67.2198 65.9144C67.213 65.9076 67.2049 65.9021 67.1959 65.8984C67.187 65.8947 67.1774 65.8928 67.1678 65.8928H53.3311C53.3214 65.8928 53.3118 65.8947 53.3029 65.8984C53.294 65.9021 53.2858 65.9076 53.279 65.9144C53.2722 65.9212 53.2668 65.9294 53.2631 65.9383C53.2594 65.9472 53.2575 65.9568 53.2575 65.9665V66.3381H52.1535V65.9665C52.1535 65.9568 52.1516 65.9472 52.1479 65.9383C52.1442 65.9294 52.1387 65.9212 52.1319 65.9144C52.1251 65.9076 52.117 65.9021 52.108 65.8984C52.0991 65.8947 52.0895 65.8928 52.0799 65.8928H50.3135C50.3038 65.8928 50.2942 65.8947 50.2853 65.8984C50.2764 65.9021 50.2683 65.9076 50.2614 65.9144C50.2546 65.9212 50.2492 65.9294 50.2455 65.9383C50.2418 65.9472 50.2399 65.9568 50.2399 65.9665V66.3381H49.1359V65.9665C49.1359 65.9568 49.134 65.9472 49.1303 65.9383C49.1266 65.9294 49.1212 65.9212 49.1143 65.9144C49.1075 65.9076 49.0994 65.9021 49.0904 65.8984C49.0815 65.8947 49.0719 65.8928 49.0623 65.8928H47.2959C47.2862 65.8928 47.2767 65.8947 47.2677 65.8984C47.2588 65.9021 47.2507 65.9076 47.2438 65.9144C47.237 65.9212 47.2316 65.9294 47.2279 65.9383C47.2242 65.9472 47.2223 65.9568 47.2223 65.9665V66.3381H46.1183V65.9665C46.1183 65.9568 46.1164 65.9472 46.1127 65.9383C46.109 65.9294 46.1036 65.9212 46.0967 65.9144C46.0899 65.9076 46.0818 65.9021 46.0729 65.8984C46.0639 65.8947 46.0544 65.8928 46.0447 65.8928H44.2783C44.2686 65.8928 44.2591 65.8947 44.2501 65.8984C44.2412 65.9021 44.2331 65.9076 44.2263 65.9144C44.2194 65.9212 44.214 65.9294 44.2103 65.9383C44.2066 65.9472 44.2047 65.9568 44.2047 65.9665V66.3381H43.1007V65.9665C43.1007 65.9568 43.0988 65.9472 43.0951 65.9383C43.0914 65.9294 43.086 65.9212 43.0792 65.9144C43.0723 65.9076 43.0642 65.9021 43.0553 65.8984C43.0464 65.8947 43.0368 65.8928 43.0271 65.8928H41.2607C41.2511 65.8928 41.2415 65.8947 41.2326 65.8984C41.2236 65.9021 41.2155 65.9076 41.2087 65.9144C41.2018 65.9212 41.1964 65.9294 41.1927 65.9383C41.189 65.9472 41.1871 65.9568 41.1871 65.9665V66.3381H40.0831V65.9665C40.0831 65.9568 40.0812 65.9472 40.0775 65.9383C40.0738 65.9294 40.0684 65.9212 40.0616 65.9144C40.0547 65.9076 40.0466 65.9021 40.0377 65.8984C40.0288 65.8947 40.0192 65.8928 40.0095 65.8928H38.2431C38.2335 65.8928 38.2239 65.8947 38.215 65.8984C38.2061 65.9021 38.1979 65.9076 38.1911 65.9144C38.1843 65.9212 38.1788 65.9294 38.1752 65.9383C38.1715 65.9472 38.1695 65.9568 38.1695 65.9665V66.3381H37.0656V65.9665C37.0656 65.9568 37.0637 65.9472 37.06 65.9383C37.0563 65.9294 37.0508 65.9212 37.044 65.9144C37.0372 65.9076 37.0291 65.9021 37.0201 65.8984C37.0112 65.8947 37.0016 65.8928 36.992 65.8928H35.2256C35.2159 65.8928 35.2063 65.8947 35.1974 65.8984C35.1885 65.9021 35.1804 65.9076 35.1735 65.9144C35.1667 65.9212 35.1613 65.9294 35.1576 65.9383C35.1539 65.9472 35.152 65.9568 35.152 65.9665V66.3381H31.7664C31.5344 66.3381 31.3047 66.3838 31.0904 66.4727C30.8761 66.5615 30.6814 66.6918 30.5174 66.8559C30.3533 67.0201 30.2232 67.2151 30.1345 67.4296C30.0457 67.6441 30 67.874 30 68.1062V68.9057C30 69.3747 30.1861 69.8244 30.5174 70.156C30.8486 70.4876 31.2979 70.6739 31.7664 70.6739H90.4988C90.7308 70.6739 90.9605 70.6282 91.1748 70.5393C91.3891 70.4504 91.5838 70.3202 91.7478 70.156C91.9119 69.9918 92.042 69.7969 92.1308 69.5824C92.2195 69.3679 92.2652 69.1379 92.2652 68.9057V68.1062C92.2652 67.874 92.2195 67.6441 92.1308 67.4296C92.042 67.2151 91.9119 67.0201 91.7478 66.8559C91.5838 66.6918 91.3891 66.5615 91.1748 66.4727C90.9605 66.3838 90.7308 66.3381 90.4988 66.3381V66.3381Z" fill="#3F3D56"/>
<path d="M74.397 56.7725H46.8096C46.7265 56.7725 46.6468 56.7394 46.588 56.6805C46.5292 56.6217 46.4962 56.5419 46.4961 56.4587V44.9525C46.4962 44.8693 46.5292 44.7895 46.588 44.7307C46.6468 44.6719 46.7265 44.6388 46.8096 44.6387H74.397C74.4801 44.6388 74.5598 44.6719 74.6186 44.7307C74.6774 44.7895 74.7104 44.8693 74.7105 44.9525V56.4587C74.7104 56.5419 74.6774 56.6217 74.6186 56.6805C74.5598 56.7394 74.4801 56.7725 74.397 56.7725V56.7725ZM46.8096 44.8479C46.7819 44.8479 46.7553 44.8589 46.7357 44.8786C46.7161 44.8982 46.7051 44.9247 46.7051 44.9525V56.4587C46.7051 56.4865 46.7161 56.5131 46.7357 56.5327C46.7553 56.5523 46.7819 56.5633 46.8096 56.5633H74.397C74.4247 56.5633 74.4513 56.5523 74.4709 56.5327C74.4905 56.5131 74.5015 56.4865 74.5015 56.4587V44.9525C74.5015 44.9247 74.4905 44.8982 74.4709 44.8786C74.4513 44.8589 74.4247 44.8479 74.397 44.8479H46.8096Z" fill="#3F3D56"/>
<path d="M49.9444 51.3333H48.6904C48.6073 51.3332 48.5276 51.3001 48.4689 51.2413C48.4101 51.1824 48.377 51.1027 48.377 51.0195V49.7642C48.377 49.681 48.4101 49.6013 48.4689 49.5425C48.5276 49.4836 48.6073 49.4505 48.6904 49.4504H49.9444C50.0275 49.4505 50.1072 49.4836 50.166 49.5425C50.2248 49.6013 50.2578 49.681 50.2579 49.7642V51.0195C50.2578 51.1027 50.2248 51.1824 50.166 51.2413C50.1072 51.3001 50.0275 51.3332 49.9444 51.3333V51.3333ZM48.6904 49.6596C48.6627 49.6597 48.6362 49.6707 48.6166 49.6903C48.597 49.7099 48.586 49.7365 48.5859 49.7642V51.0195C48.586 51.0472 48.597 51.0738 48.6166 51.0934C48.6362 51.113 48.6627 51.124 48.6904 51.1241H49.9444C49.9721 51.124 49.9987 51.113 50.0183 51.0934C50.0379 51.0738 50.0489 51.0472 50.0489 51.0195V49.7642C50.0489 49.7365 50.0379 49.7099 50.0183 49.6903C49.9987 49.6707 49.9721 49.6597 49.9444 49.6596H48.6904Z" fill="#3F3D56"/>
<path d="M72.306 51.124H48.4805V51.3332H72.306V51.124Z" fill="#3F3D56"/>
<path d="M134.273 62.2119H57.6758V62.4211H134.273V62.2119Z" fill="#3F3D56"/>
<path d="M57.6778 63.6764C58.4858 63.6764 59.1408 63.0208 59.1408 62.212C59.1408 61.4032 58.4858 60.7476 57.6778 60.7476C56.8698 60.7476 56.2148 61.4032 56.2148 62.212C56.2148 63.0208 56.8698 63.6764 57.6778 63.6764Z" fill="#3F3D56"/>
<path d="M134.273 63.5718C134.907 63.5718 135.422 63.0566 135.422 62.4211C135.422 61.7857 134.907 61.2705 134.273 61.2705C133.638 61.2705 133.123 61.7857 133.123 62.4211C133.123 63.0566 133.638 63.5718 134.273 63.5718Z" fill="#3F3D56"/>
<path d="M139.917 86.6889C140.552 86.6889 141.067 86.1738 141.067 85.5383C141.067 84.9028 140.552 84.3877 139.917 84.3877C139.282 84.3877 138.768 84.9028 138.768 85.5383C138.768 86.1738 139.282 86.6889 139.917 86.6889Z" fill="#3F3D56"/>
<path d="M63.6319 86.6889C64.2667 86.6889 64.7814 86.1738 64.7814 85.5383C64.7814 84.9028 64.2667 84.3877 63.6319 84.3877C62.9971 84.3877 62.4824 84.9028 62.4824 85.5383C62.4824 86.1738 62.9971 86.6889 63.6319 86.6889Z" fill="#3F3D56"/>
</g>
<defs>
<clipPath id="clip0_1702_7358">
<rect width="115" height="72.3542" fill="white" transform="translate(30 34)"/>
</clipPath>
</defs>
</svg>
