<svg width="20" height="20" viewBox="0 0 20 20" fill="none" xmlns="http://www.w3.org/2000/svg">
<path d="M13.1258 14.5647C11.4914 15.8344 9.43445 16.4334 7.37388 16.2397C5.31332 16.046 3.40403 15.0743 2.0348 13.5223C0.665565 11.9703 -0.0606687 9.95483 0.0039727 7.88619C0.0686141 5.81755 0.91927 3.85132 2.38273 2.38786C3.84619 0.924396 5.81242 0.0737411 7.88106 0.00909966C9.9497 -0.0555417 11.9652 0.670691 13.5172 2.03993C15.0692 3.40916 16.0409 5.31844 16.2346 7.37901C16.4283 9.43958 15.8293 11.4965 14.5596 13.1309L20 18.551L18.556 19.995L13.136 14.5647H13.1258ZM8.14303 14.2393C8.94427 14.2393 9.73767 14.0815 10.4779 13.7749C11.2182 13.4683 11.8908 13.0189 12.4573 12.4523C13.0239 11.8857 13.4733 11.2131 13.7799 10.4729C14.0866 9.73262 14.2444 8.93923 14.2444 8.13799C14.2444 7.33674 14.0866 6.54335 13.7799 5.8031C13.4733 5.06285 13.0239 4.39024 12.4573 3.82368C11.8908 3.25711 11.2182 2.80769 10.4779 2.50107C9.73767 2.19445 8.94427 2.03663 8.14303 2.03663C6.52485 2.03663 4.97294 2.67945 3.82872 3.82368C2.68449 4.9679 2.04167 6.51981 2.04167 8.13799C2.04167 9.75617 2.68449 11.3081 3.82872 12.4523C4.97294 13.5965 6.52485 14.2393 8.14303 14.2393Z" fill="black"/>
</svg>
