<svg width="54" height="50" viewBox="0 0 54 50" fill="none" xmlns="http://www.w3.org/2000/svg">
<path fill-rule="evenodd" clip-rule="evenodd" d="M35.1576 4.71004L27.6794 0L20.2012 4.71004H24.9314V7.85008H30.819V4.71004H35.1576Z" fill="white"/>
<path fill-rule="evenodd" clip-rule="evenodd" d="M48.2607 36.3702L45.987 44.9106L37.3023 46.549L40.7683 43.3296L38.6312 41.0288L42.9449 37.0219L45.082 39.3227L48.2607 36.3702Z" fill="white"/>
<path fill-rule="evenodd" clip-rule="evenodd" d="M5.73934 36.3702L8.01302 44.9106L16.6977 46.549L13.2317 43.3296L15.3688 41.0288L11.0551 37.022L8.91797 39.3227L5.73934 36.3702Z" fill="white"/>
<path fill-rule="evenodd" clip-rule="evenodd" d="M43.7025 10.6632L50.9959 15.6547L49.6444 24.3887L47.765 20.0473L44.8834 21.2948L42.5444 15.8918L45.426 14.6443L43.7025 10.6632Z" fill="white"/>
<path fill-rule="evenodd" clip-rule="evenodd" d="M10.2955 10.6632L3.00218 15.6547L4.35365 24.3887L6.23313 20.0471L9.11519 21.2948L11.4542 15.8918L8.57213 14.6441L10.2955 10.6632Z" fill="white"/>
<circle cx="27.3397" cy="26.5457" r="16.3358" stroke="white" stroke-width="2"/>
<path d="M18.1621 22.2352H20.1544L22.2585 27.568H22.3481L24.4523 22.2352H26.4445V30.1724H24.8776V25.0062H24.8141L22.8368 30.1336H21.7698L19.7925 24.9869H19.729V30.1724H18.1621V22.2352Z" fill="white"/>
<path d="M29.3909 22.2352V30.1724H27.7755V22.2352H29.3909Z" fill="white"/>
<path d="M34.8649 24.5179C34.8351 24.2053 34.707 23.9624 34.4807 23.7893C34.2543 23.6162 33.9472 23.5297 33.5592 23.5297C33.2955 23.5297 33.0729 23.5684 32.8913 23.6459C32.7098 23.7209 32.5705 23.8255 32.4735 23.9598C32.379 24.0942 32.3317 24.2466 32.3317 24.4172C32.3267 24.5593 32.3553 24.6833 32.4175 24.7892C32.4822 24.8951 32.5705 24.9869 32.6824 25.0644C32.7943 25.1393 32.9237 25.2052 33.0704 25.262C33.2172 25.3163 33.3739 25.3628 33.5405 25.4015L34.227 25.5721C34.5603 25.6496 34.8662 25.7529 35.1448 25.8821C35.4233 26.0113 35.6646 26.1702 35.8685 26.3588C36.0725 26.5474 36.2304 26.7696 36.3423 27.0254C36.4568 27.2812 36.5152 27.5744 36.5177 27.9052C36.5152 28.3909 36.3958 28.812 36.1595 29.1686C35.9257 29.5226 35.5875 29.7977 35.1448 29.9941C34.7045 30.1879 34.1735 30.2847 33.5517 30.2847C32.9349 30.2847 32.3976 30.1866 31.94 29.9902C31.4848 29.7938 31.1292 29.5032 30.873 29.1182C30.6193 28.7306 30.4862 28.2514 30.4738 27.6804H32.037C32.0544 27.9465 32.1278 28.1687 32.2571 28.347C32.3889 28.5227 32.5643 28.6557 32.7831 28.7462C33.0045 28.834 33.2545 28.8779 33.533 28.8779C33.8066 28.8779 34.0442 28.8366 34.2456 28.7539C34.4496 28.6712 34.6075 28.5562 34.7194 28.409C34.8314 28.2617 34.8873 28.0925 34.8873 27.9013C34.8873 27.723 34.8363 27.5732 34.7344 27.4517C34.6349 27.3303 34.4881 27.2269 34.2941 27.1417C34.1026 27.0564 33.8676 26.9789 33.589 26.9091L32.757 26.6921C32.1128 26.5293 31.6042 26.2748 31.2311 25.9286C30.8581 25.5824 30.6728 25.1161 30.6752 24.5296C30.6728 24.049 30.7959 23.6291 31.0446 23.27C31.2958 22.9109 31.6403 22.6305 32.078 22.429C32.5158 22.2275 33.0132 22.1267 33.5703 22.1267C34.1374 22.1267 34.6324 22.2275 35.0552 22.429C35.4805 22.6305 35.8113 22.9109 36.0476 23.27C36.2839 23.6291 36.4058 24.0451 36.4132 24.5179H34.8649Z" fill="white"/>
</svg>
