<svg width="50" height="53" viewBox="0 0 50 53" fill="none" xmlns="http://www.w3.org/2000/svg">
<path d="M13.5742 16.0271L20.266 9.95778C20.6339 9.62407 21.1129 9.43922 21.6096 9.43922H31.3269C31.8573 9.43922 32.366 9.22851 32.7411 8.85343L36.9749 4.6196C37.35 4.24453 37.8587 4.03381 38.3891 4.03381H45.8648C46.9693 4.03381 47.8648 4.92924 47.8648 6.03381V49.5C47.8648 50.6046 46.9693 51.5 45.8648 51.5H15.5742C14.4697 51.5 13.5742 50.6046 13.5742 49.5V35.1149" stroke="white" stroke-width="3"/>
<path d="M9.52148 12.6487L16.6161 5.72302" stroke="white" stroke-width="3"/>
<path d="M11.041 11.1284L14.7572 14.8446" stroke="white" stroke-width="3"/>
<path d="M15.0957 7.41211L18.8119 11.1283" stroke="white" stroke-width="3"/>
<path d="M23.541 9.27027L23.6807 5.3583C23.6994 4.83421 23.9233 4.33844 24.304 3.97777L26.3408 2.04809C26.7123 1.69615 27.2046 1.5 27.7163 1.5H36.3973C36.8242 1.5 37.2399 1.63663 37.5837 1.88989L40.264 3.86486" stroke="white" stroke-width="3"/>
<path fill-rule="evenodd" clip-rule="evenodd" d="M4.75928 15.2601C5.97577 13.8884 9.04241 14.9811 9.99356 16.5485C10.6327 17.6017 11.5188 18.7436 12.7305 19.9121C17.4603 24.473 15.94 29.7094 12.5617 32.4121C9.18327 35.1148 4.42755 34.777 2.08868 31.3986C0.753513 29.4701 -2.6663 23.6328 4.75928 15.2601ZM4.0465 28.3163C3.97954 28.2317 3.92056 28.1421 3.87059 28.0465C3.52169 27.379 2.97656 26.1576 3.10211 25.6554C3.27102 24.9797 2.42649 23.6284 1.5819 24.473C0.737305 25.3175 1.9198 28.0202 2.93325 29.3716C3.9467 30.7229 4.96027 31.5675 5.46703 31.7365C5.5016 31.748 5.53538 31.7595 5.56838 31.7708C6.01909 31.9245 6.32315 32.0282 6.48055 31.3986C6.64946 30.7229 6.14271 30.3851 5.63595 30.0473C5.26187 29.7979 4.47547 28.8582 4.0465 28.3163Z" fill="white"/>
<path d="M22.9213 26.9866C22.6263 26.9866 22.4228 26.6875 22.2047 26.4887C22.0777 26.3711 21.8766 26.3123 21.6016 26.3123C21.4195 26.3123 21.264 26.336 21.135 26.3834C21.006 26.429 20.9046 26.4934 20.8306 26.5769C20.7566 26.6585 20.7101 26.7533 20.6912 26.8614C20.6741 26.9468 20.6788 27.0226 20.7054 27.089C20.732 27.1554 20.7784 27.2142 20.8448 27.2654C20.9131 27.3166 20.9975 27.3612 21.098 27.3991C21.2004 27.437 21.3152 27.4702 21.4423 27.4987L21.9202 27.6125C22.1972 27.6751 22.4371 27.7585 22.64 27.8629C22.8449 27.9653 23.0108 28.0895 23.1379 28.2356C23.265 28.3797 23.3522 28.5457 23.3997 28.7334C23.4471 28.9212 23.4509 29.1317 23.411 29.365C23.3503 29.733 23.2053 30.0488 22.9758 30.3124C22.7481 30.5761 22.4504 30.7781 22.0824 30.9184C21.7163 31.0588 21.2905 31.129 20.805 31.129C20.3194 31.129 19.9069 31.0559 19.5674 30.9099C19.2298 30.762 18.9851 30.5391 18.8334 30.2413C18.7522 30.0821 18.7028 29.9006 18.6851 29.6969C18.6561 29.362 18.959 29.1147 19.2952 29.1147H19.5744C19.8317 29.1147 20.0047 29.3582 20.1279 29.5841C20.198 29.7093 20.3061 29.8041 20.4522 29.8686C20.5982 29.9331 20.7746 29.9653 20.9814 29.9653C21.171 29.9653 21.337 29.9397 21.4793 29.8885C21.6234 29.8373 21.7382 29.7662 21.8235 29.6752C21.9108 29.5841 21.9639 29.4798 21.9828 29.3622C22.0018 29.2541 21.9838 29.1602 21.9288 29.0805C21.8757 29.0009 21.7846 28.9316 21.6556 28.8728C21.5286 28.8141 21.3617 28.7609 21.1549 28.7135L20.5717 28.5713C20.0899 28.4537 19.7248 28.2659 19.4763 28.008C19.2298 27.75 19.1425 27.4001 19.2146 26.9581C19.2753 26.5959 19.4251 26.2791 19.6641 26.0079C19.905 25.7367 20.2094 25.5261 20.5774 25.3763C20.9472 25.2245 21.3541 25.1487 21.7979 25.1487C22.2493 25.1487 22.6287 25.2255 22.9359 25.3791C23.2451 25.5309 23.4679 25.7452 23.6045 26.0221C23.6625 26.1373 23.7032 26.2607 23.7266 26.3922C23.7868 26.7309 23.4709 26.9866 23.1269 26.9866H22.9213Z" fill="white"/>
<path d="M25.107 30.6739C24.9951 30.9069 24.7595 31.055 24.5011 31.055C24.0007 31.055 23.6758 30.5277 23.9008 30.0807L25.9876 25.9354C26.2059 25.5019 26.6498 25.2283 27.1352 25.2283C27.761 25.2283 28.2957 25.6793 28.4015 26.2961L29.0691 30.1919C29.1465 30.643 28.799 31.055 28.3414 31.055C27.975 31.055 27.6641 30.7864 27.6108 30.4239L27.0672 26.7224C27.065 26.7075 27.0522 26.6964 27.037 26.6964C27.0253 26.6964 27.0146 26.7031 27.0095 26.7137L25.107 30.6739ZM25.0302 29.207C25.074 28.9499 25.2967 28.7619 25.5575 28.7619H27.6361C27.9673 28.7619 28.2189 29.0599 28.1634 29.3865C28.1196 29.6436 27.8968 29.8316 27.6361 29.8316H25.5575C25.2262 29.8316 24.9746 29.5336 25.0302 29.207Z" fill="white"/>
<path d="M30.6852 25.2283C31.0676 25.2283 31.3916 25.5103 31.4443 25.8891L31.943 29.4682C31.9452 29.4841 31.9588 29.4959 31.9749 29.4959C31.9873 29.4959 31.9986 29.4887 32.004 29.4775L33.8179 25.6289C33.9332 25.3844 34.1792 25.2283 34.4496 25.2283C34.9695 25.2283 35.3071 25.7762 35.0733 26.2406L33.0056 30.3479C32.7873 30.7815 32.3434 31.055 31.858 31.055C31.2322 31.055 30.6975 30.6041 30.5917 29.9873L29.9297 26.1243C29.8494 25.6561 30.2101 25.2283 30.6852 25.2283Z" fill="white"/>
<path d="M37.6023 31.055C36.3669 31.055 35.427 29.9461 35.6293 28.7275L35.9325 26.9008C36.0927 25.9358 36.9274 25.2283 37.9055 25.2283H39.5962C39.9501 25.2283 40.2191 25.5466 40.1601 25.8956C40.1135 26.1707 39.8752 26.3721 39.5962 26.3721H37.9335C37.6404 26.3721 37.3906 26.5847 37.3438 26.874C37.2849 27.2374 37.5655 27.567 37.9335 27.567H39.0002C39.3549 27.567 39.6245 27.8859 39.5655 28.2356C39.5189 28.5115 39.28 28.7135 39.0002 28.7135H37.548C37.2541 28.7135 37.0037 28.9268 36.9568 29.2169C36.898 29.5811 37.1792 29.9113 37.548 29.9113H38.8224C39.1763 29.9113 39.4452 30.2295 39.3862 30.5785C39.3397 30.8536 39.1014 31.055 38.8224 31.055H37.6023Z" fill="white"/>
<path d="M24.5282 38.7805C24.0993 38.7805 23.7729 38.3955 23.8431 37.9724L24.4044 34.5914C24.5613 33.6466 25.3785 32.9539 26.3363 32.9539H27.977C28.3309 32.9539 28.5998 33.2721 28.5408 33.6211C28.4943 33.8962 28.256 34.0976 27.977 34.0976H26.3996C26.1065 34.0976 25.8567 34.3102 25.8099 34.5995C25.751 34.9629 26.0316 35.2925 26.3996 35.2925H27.3354C27.6901 35.2925 27.9597 35.6114 27.9007 35.9611C27.8542 36.2371 27.6152 36.439 27.3354 36.439H26.6641C25.995 36.439 25.4242 36.9233 25.3151 37.5834L25.2133 38.1993C25.1579 38.5346 24.868 38.7805 24.5282 38.7805Z" fill="white"/>
<path d="M32.7912 33.5334C32.847 33.199 33.1363 32.9539 33.4753 32.9539C33.9036 32.9539 34.2295 33.3383 34.1595 33.7608L33.6702 36.7122C33.5981 37.1465 33.4322 37.5249 33.1723 37.8473C32.9144 38.1679 32.5853 38.4163 32.1851 38.5927C31.7849 38.7672 31.3392 38.8545 30.8479 38.8545C30.3548 38.8545 29.9385 38.7672 29.5989 38.5927C29.2594 38.4163 29.0138 38.1679 28.8621 37.8473C28.7103 37.5249 28.6696 37.1465 28.7397 36.7122L29.2665 33.5346C29.3221 33.1996 29.6119 32.9539 29.9515 32.9539C30.3805 32.9539 30.7069 33.3391 30.6364 33.7623L30.1651 36.5898C30.1329 36.7909 30.148 36.9701 30.2106 37.1275C30.2751 37.2831 30.3794 37.4064 30.5236 37.4974C30.6677 37.5865 30.8441 37.6311 31.0528 37.6311C31.2633 37.6311 31.4558 37.5865 31.6303 37.4974C31.8048 37.4064 31.949 37.2831 32.0628 37.1275C32.1766 36.9701 32.2496 36.7909 32.2818 36.5898L32.7912 33.5334Z" fill="white"/>
<path d="M36.568 38.7805C35.3327 38.7805 34.3927 37.6717 34.595 36.453L34.8983 34.6263C35.0585 33.6614 35.8931 32.9539 36.8713 32.9539H38.562C38.9159 32.9539 39.1848 33.2721 39.1258 33.6211C39.0793 33.8962 38.841 34.0976 38.562 34.0976H36.8993C36.6062 34.0976 36.3564 34.3102 36.3095 34.5995C36.2507 34.9629 36.5312 35.2925 36.8993 35.2925H37.9659C38.3207 35.2925 38.5903 35.6114 38.5312 35.9611C38.4847 36.2371 38.2458 36.439 37.9659 36.439H36.5138C36.2199 36.439 35.9694 36.6523 35.9225 36.9424C35.8637 37.3066 36.1449 37.6368 36.5138 37.6368H37.7881C38.142 37.6368 38.411 37.9551 38.352 38.304C38.3054 38.5792 38.0671 38.7805 37.7881 38.7805H36.568Z" fill="white"/>
<path d="M41.3862 38.7805C40.2171 38.7805 39.3275 37.7311 39.519 36.5778L40.0242 33.535C40.0798 33.1997 40.3698 32.9539 40.7097 32.9539C41.1388 32.9539 41.4653 33.3388 41.3954 33.7621L40.9523 36.4433C40.849 37.0684 41.3312 37.6368 41.9647 37.6368H42.5024C42.8563 37.6368 43.1252 37.9551 43.0662 38.304C43.0197 38.5792 42.7814 38.7805 42.5024 38.7805H41.3862Z" fill="white"/>
</svg>
