<svg width="61" height="52" viewBox="0 0 61 52" fill="none" xmlns="http://www.w3.org/2000/svg">
<path d="M28.5667 16.6342V23.6949C28.5667 24.2073 28.3699 24.7002 28.0171 25.0719L25.1816 28.0586" stroke="white" stroke-width="2"/>
<path d="M38.4492 17.3269L40.8387 15.7556" stroke="white" stroke-width="2" stroke-linecap="round"/>
<path d="M28.834 12.2008L28.9498 9.34328" stroke="white" stroke-width="2" stroke-linecap="round"/>
<path d="M19.6836 17.3269L17.2941 15.7556" stroke="white" stroke-width="2" stroke-linecap="round"/>
<path d="M40.067 35.8654L26.6868 41.0502C25.8784 41.3011 24.1111 41.4182 23.509 39.8794C22.7563 37.956 23.0908 37.2034 24.0943 36.5344C24.8972 35.9992 34.5198 31.907 39.2307 29.9279C39.9834 29.6491 41.8064 29.2589 43.0776 29.9279C44.1552 30.4951 46.1906 31.7435 47.4816 32.552C47.8789 32.8007 48.1734 33.183 48.3163 33.6294L51.5159 43.6282C51.8461 44.6602 51.2945 45.768 50.2629 46.0994C48.3925 46.7004 45.9546 47.4162 44.4156 47.6567C42.348 47.9797 30.4414 49.5769 24.1549 50.414C23.7342 50.47 23.3081 50.3905 22.9355 50.1874L3.10406 39.3777C2.40717 38.9038 1.281 37.5379 2.35142 35.8653C3.42184 34.1928 4.97171 34.2764 5.61284 34.5273L20.0802 41.0502" stroke="white" stroke-width="2"/>
<path d="M6.28126 34.7781C5.75162 34.3042 4.92651 32.8714 5.86313 30.9313C7.0339 28.5061 10.2954 30.2623 10.9644 30.9313C11.4996 31.4665 16.4837 35.6144 18.9089 37.6214" stroke="white" stroke-width="2"/>
<path d="M13.9762 33.4401C13.7532 31.7118 14.1267 28.5897 17.4049 29.9278C20.683 31.2658 22.5061 33.1056 23.0078 33.8582" stroke="white" stroke-width="2"/>
<path d="M12.5262 24.1591C11.7986 24.3 11.0891 23.8244 11.0042 23.0881C10.7574 20.9479 10.9062 18.7765 11.4472 16.6833C12.1003 14.156 13.3086 11.8062 14.9842 9.80479C16.6598 7.80335 18.7605 6.20065 21.1335 5.1133C23.5065 4.02594 26.092 3.4813 28.702 3.51899C31.312 3.55668 33.8807 4.17577 36.2213 5.33119C38.5619 6.48662 40.6154 8.14932 42.2325 10.1983C43.8496 12.2473 44.9896 14.631 45.5694 17.176C46.0497 19.2841 46.1358 21.4588 45.8273 23.591C45.7212 24.3246 44.9983 24.7794 44.275 24.6176C43.5517 24.4558 43.1029 23.7385 43.1989 23.0035C43.4263 21.2624 43.3441 19.4912 42.9525 17.7723C42.4612 15.6163 41.4955 13.5969 40.1256 11.8611C38.7557 10.1253 37.016 8.71677 35.0332 7.73795C33.0504 6.75914 30.8743 6.23468 28.6632 6.20275C26.4522 6.17082 24.2619 6.63221 22.2516 7.55336C20.2413 8.47451 18.4617 9.83224 17.0423 11.5278C15.6228 13.2233 14.5992 15.2139 14.0459 17.3548C13.6048 19.0617 13.4714 20.8298 13.6485 22.5768C13.7232 23.3142 13.2539 24.0182 12.5262 24.1591Z" fill="white"/>
<path d="M52.2755 44.9015L47.8364 31.42C47.4812 30.3412 48.0946 29.1834 49.1867 28.8714L52.7284 27.8595C53.7663 27.5629 54.8522 28.1435 55.1821 29.1713L59.4811 42.5643C59.8181 43.6143 59.2416 44.7389 58.1924 45.0784L54.7908 46.1789C53.7437 46.5177 52.6197 45.9468 52.2755 44.9015Z" stroke="white" stroke-width="2"/>
</svg>
